<svg xmlns="http://www.w3.org/2000/svg" width="80" height="48" viewBox="0 0 80 48" fill="none"><g clip-path="url(#clip0_263_597)"><path d="M17.7769 45.4114C17.4092 45.1384 16.9496 44.8654 16.5819 44.6834C16.6738 43.9553 16.5819 43.1363 16.398 42.3173C16.0303 40.9522 15.2949 39.6781 14.2837 38.495C13.3645 39.2231 12.9048 40.4972 13.0887 41.8622C12.4452 41.2252 11.8017 40.5882 11.2502 39.9511C11.6179 39.3141 11.8017 38.4951 11.8017 37.676C11.8937 36.3109 11.6179 34.9459 10.9744 33.5808C9.77937 34.0358 9.04396 35.2189 8.86011 36.584C8.40048 35.8559 8.03278 35.0369 7.66507 34.3088C8.21663 33.7628 8.67626 33.0348 8.95204 32.2157C9.41166 30.9417 9.50359 29.5766 9.22781 28.1205C7.94085 28.3025 6.83774 29.2126 6.28618 30.5776C6.01041 29.6676 5.82656 28.8485 5.73463 27.9385C6.47004 27.5745 7.11352 26.9374 7.57315 26.2094C8.30855 25.1173 8.86011 23.7523 8.95204 22.2962C7.57315 22.1142 6.19426 22.8422 5.36693 24.1163C5.36693 23.2062 5.45885 22.2052 5.55078 21.2951C6.37811 21.1131 7.20544 20.6581 7.94085 20.1121C8.95204 19.293 9.77937 18.11 10.3309 16.7449C9.04396 16.1989 7.48122 16.5629 6.28618 17.6549C6.56196 16.7449 6.83774 15.7438 7.20544 14.8338C8.1247 14.9248 9.04396 14.6518 9.87129 14.2878C11.0663 13.7417 12.1694 12.8317 13.0887 11.5576C11.9856 10.6476 10.3309 10.6476 8.86011 11.4666C9.41166 10.5566 9.96322 9.73752 10.6067 8.91848C11.434 9.28249 12.4452 9.28249 13.4564 9.10048C14.8353 8.82747 16.2142 8.28144 17.5011 7.28039C16.6738 6.09732 15.0191 5.6423 13.2726 6.09732C14.5595 4.91426 15.9384 3.8222 17.5931 2.91215C18.0527 2.63914 18.2365 2.09311 17.9608 1.63809C17.685 1.18306 17.0415 1.00105 16.5819 1.27407C14.8353 2.27512 13.2726 3.45818 11.8937 4.73225C12.6291 2.91216 12.721 1.27407 11.8937 0C10.239 1.09206 9.04396 2.91215 8.76818 4.45924C8.49241 5.6423 8.67626 6.64335 9.22781 7.4624C8.49241 8.37245 7.84892 9.3735 7.29737 10.2835C7.48122 8.37245 7.02159 6.73436 5.91848 5.82431C4.63152 7.5534 4.07996 9.55551 4.26382 11.1026C4.35574 12.2857 4.81537 13.1957 5.55078 13.8327C5.09115 14.9248 4.72344 15.9258 4.44767 17.0179C4.07996 15.1978 3.25263 13.7417 1.87374 13.1047C1.13834 15.1068 1.13834 17.1089 1.68989 18.565C2.14952 19.657 2.793 20.3851 3.71226 20.8401C3.52841 21.9322 3.52841 23.0242 3.52841 24.1163C2.70108 22.4782 1.50604 21.3861 0.0352263 21.2041C-0.148625 23.2972 0.40293 25.2083 1.32219 26.4824C1.96567 27.3925 2.88493 27.9385 3.80419 28.1205C3.89611 29.2126 4.17189 30.2136 4.35574 31.2147C3.16071 29.9406 1.78182 29.2126 0.311004 29.3946C0.678707 31.4877 1.68989 33.2168 2.97685 34.1268C3.80419 34.8549 4.81537 35.1279 5.6427 35.0369C6.01041 35.9469 6.47004 36.948 6.92967 37.767C5.36693 37.13 3.89611 36.766 2.60915 37.312C3.52841 39.2231 4.99922 40.6792 6.47004 41.3162C7.48122 41.7712 8.40048 41.7712 9.22781 41.5892C9.87129 42.4083 10.5148 43.1363 11.2502 43.8643C9.68744 43.5003 8.30855 43.5913 7.29737 44.4104C8.76818 46.0485 10.6986 47.0495 12.3533 47.3225C13.3645 47.5045 14.2837 47.3225 15.0191 46.9585C15.3868 47.2315 15.8465 47.5045 16.2142 47.7775C16.9496 48.2326 17.8688 47.9596 18.2365 47.2315C18.6043 46.5945 18.4204 45.7754 17.7769 45.4114Z" fill="#7659FF"></path><path d="M75.736 31.5787C76.006 30.5776 76.1859 29.4856 76.2759 28.4845C77.1758 28.3025 77.9857 27.7565 78.7057 26.8464C79.6056 25.5724 80.1455 23.6613 79.9655 21.5681C78.5257 21.7502 77.3558 22.9332 76.5459 24.4803C76.5459 23.3882 76.4559 22.2962 76.3659 21.2041C77.1758 20.8401 77.8957 20.0211 78.3457 18.929C78.8856 17.4729 78.9756 15.4708 78.1657 13.4687C76.8159 14.1058 76.006 15.5618 75.646 17.3819C75.376 16.2899 75.0161 15.1978 74.5661 14.1968C75.286 13.5597 75.736 12.6497 75.826 11.4666C76.006 9.91953 75.466 7.91742 74.2061 6.18833C73.0363 7.09838 72.6763 8.82747 72.8563 10.6476C72.1364 9.64651 71.5064 8.73647 70.7865 7.82642C71.3265 7.09838 71.5064 6.00632 71.2365 4.82326C70.9665 3.27617 69.7966 1.45608 67.9968 0C67.1869 1.18306 67.2769 2.91216 67.9968 4.73225C66.647 3.45818 65.1171 2.27512 63.4073 1.27407C62.9574 1.00105 62.3275 1.18306 62.0575 1.63809C61.7875 2.09311 61.9675 2.63914 62.4175 2.91216C63.9473 3.8222 65.3871 4.91426 66.647 6.09732C64.9372 5.6423 63.3174 6.09732 62.5074 7.28039C63.7673 8.28144 65.1172 8.82747 66.467 9.10048C67.4569 9.28249 68.4468 9.28249 69.2567 8.91847C69.8866 9.73752 70.5166 10.6476 70.9665 11.4666C69.5267 10.6476 67.9068 10.6476 66.827 11.5576C67.7269 12.7407 68.8067 13.7417 69.9766 14.2878C70.8765 14.7428 71.7764 14.9248 72.5863 14.8338C72.9463 15.7438 73.2163 16.6539 73.4862 17.6549C72.3164 16.5629 70.7865 16.1989 69.5267 16.7449C70.0666 18.11 70.8765 19.293 71.8664 20.1121C72.5863 20.7491 73.3962 21.1131 74.2061 21.2951C74.2961 22.2052 74.3861 23.2062 74.3861 24.1163C73.5762 22.8422 72.2264 22.1142 70.8765 22.2962C71.0565 23.7523 71.5064 25.1173 72.2264 26.2094C72.6763 26.9374 73.3063 27.5745 74.0262 27.9385C73.8462 28.8485 73.6662 29.6676 73.4862 30.5776C72.9463 29.2126 71.9564 28.2115 70.6065 28.1205C70.3366 29.5766 70.5166 31.0326 70.8765 32.2157C71.1465 33.0348 71.5064 33.7628 72.1364 34.3088C71.7764 35.1279 71.4165 35.8559 70.9665 36.5839C70.7865 35.2189 70.0666 34.0358 68.8967 33.5808C68.2668 34.9459 67.9968 36.3109 68.0868 37.676C68.0868 38.495 68.2668 39.3141 68.6268 39.9511C68.0868 40.5882 67.4569 41.2252 66.827 41.8622C67.007 40.4972 66.647 39.2231 65.6571 38.495C64.6672 39.6781 63.9473 40.9522 63.5873 42.3173C63.4073 43.1363 63.3174 43.9553 63.4073 44.6834C63.0474 44.9564 62.6874 45.2294 62.2375 45.4114C61.6075 45.7754 61.4276 46.5945 61.6975 47.2315C62.0575 47.9595 62.9574 48.2326 63.6773 47.7775C64.1273 47.5045 64.4872 47.2315 64.8472 46.9585C65.5671 47.3225 66.467 47.5045 67.4569 47.3225C69.0767 47.0495 70.9665 46.0485 72.4063 44.4104C71.4165 43.5913 70.0666 43.5003 68.5368 43.8643C69.2567 43.1363 69.8866 42.4083 70.5166 41.5892C71.3265 41.7712 72.2264 41.6802 73.2163 41.3162C74.6561 40.6792 76.0959 39.3141 76.9958 37.312C75.736 36.766 74.2961 37.13 72.9463 37.949C73.3962 37.039 73.8462 36.1289 74.2061 35.2189C75.106 35.2189 76.006 34.9459 76.8159 34.3088C77.9857 33.3078 79.0656 31.6697 79.4256 29.5766C78.2557 29.5766 76.9058 30.3956 75.736 31.5787Z" fill="#7659FF"></path><path d="M45.8187 32.9L44.7688 26.85L49.1688 22.55C49.3188 22.4 49.3687 22.2 49.3188 22.05C49.2688 21.85 49.1188 21.75 48.9188 21.7L42.8187 20.8L40.1188 15.3C40.0188 15.15 39.8687 15 39.6687 15C39.4688 15 39.3188 15.1 39.2188 15.3L36.5188 20.8L30.4188 21.7C30.2188 21.75 30.0687 21.85 30.0187 22.05C29.9687 22.25 30.0188 22.45 30.1688 22.55L34.5687 26.85L33.5188 32.9C33.4688 33.1 33.5688 33.3 33.7188 33.4C33.8688 33.5 34.0688 33.55 34.2688 33.45L39.6687 30.55L45.1188 33.4C45.1688 33.45 45.2688 33.45 45.3688 33.45C45.4688 33.45 45.5687 33.4 45.6687 33.35C45.7688 33.25 45.8687 33.1 45.8187 32.9Z" fill="#F2B52F"></path></g><defs><clipPath id="clip0_263_597"><rect width="80" height="48" fill="white"></rect></clipPath></defs></svg>