<svg xmlns="http://www.w3.org/2000/svg" width="30" height="30" viewBox="0 0 30 30" fill="none"><path d="M8.64609 28.0453L7.96875 27.5939L7.29141 28.0458C6.97969 28.253 6.5625 28.0298 6.5625 27.6553V25.7189H9.375V27.6553C9.375 28.0298 8.95781 28.253 8.64609 28.0453Z" fill="#C80A50"></path><path d="M22.5 2.8125V25.3125C22.5 25.8281 22.0781 26.25 21.5625 26.25H4.6875C4.17188 26.25 3.75 25.8281 3.75 25.3125V2.8125C3.75 2.29688 4.17188 1.875 4.6875 1.875H21.5625C22.0781 1.875 22.5 2.29688 22.5 2.8125Z" fill="#FAB400"></path><path d="M22.5 13.4438V23.1187L19.2188 21.0984H17.3438C17.0813 21.0984 16.8469 20.9906 16.6781 20.8172C16.5094 20.6437 16.4062 20.4094 16.4062 20.1609V16.4109C16.4062 15.8906 16.8281 15.4734 17.3438 15.4734H19.2188L22.5 13.4438Z" fill="#DC9600"></path><path d="M19.6875 16.4062H9.375C8.85703 16.4062 8.4375 15.9867 8.4375 15.4688V5.625C8.4375 5.10703 8.85703 4.6875 9.375 4.6875H19.6875C20.2055 4.6875 20.625 5.10703 20.625 5.625V15.4688C20.625 15.9867 20.2055 16.4062 19.6875 16.4062Z" fill="#F0F0F0"></path><path d="M14.0625 13.3594C13.8038 13.3594 13.5938 13.1494 13.5938 12.8906V10.0781C13.5938 9.69047 13.2783 9.375 12.8906 9.375C12.503 9.375 12.1875 9.69047 12.1875 10.0781V12.8906C12.1875 13.1494 11.9775 13.3594 11.7188 13.3594C11.46 13.3594 11.25 13.1494 11.25 12.8906V10.0781C11.25 9.17344 11.9859 8.4375 12.8906 8.4375C13.7953 8.4375 14.5312 9.17344 14.5312 10.0781V12.8906C14.5312 13.1494 14.3212 13.3594 14.0625 13.3594Z" fill="#D2D2D2"></path><path d="M13.8281 11.7188H11.9531C11.6944 11.7188 11.4844 11.5087 11.4844 11.25C11.4844 10.9913 11.6944 10.7812 11.9531 10.7812H13.8281C14.0869 10.7812 14.2969 10.9913 14.2969 11.25C14.2969 11.5087 14.0869 11.7188 13.8281 11.7188Z" fill="#D2D2D2"></path><path d="M16.4062 13.5938C15.6309 13.5938 15 12.9628 15 12.1875V11.7188C15 10.9434 15.6309 10.3125 16.4062 10.3125H17.3438C17.6025 10.3125 17.8125 10.5225 17.8125 10.7812V12.1875C17.8125 12.9628 17.1816 13.5938 16.4062 13.5938ZM16.4062 11.25C16.148 11.25 15.9375 11.4605 15.9375 11.7188V12.1875C15.9375 12.4458 16.148 12.6562 16.4062 12.6562C16.6645 12.6562 16.875 12.4458 16.875 12.1875V11.25H16.4062Z" fill="#D2D2D2"></path><path d="M18.2812 13.5938C17.5059 13.5938 16.875 12.9628 16.875 12.1875V11.7188C16.875 11.46 17.085 11.25 17.3438 11.25C17.6025 11.25 17.8125 11.46 17.8125 11.7188V12.1875C17.8125 12.4458 18.023 12.6562 18.2812 12.6562C18.54 12.6562 18.75 12.8663 18.75 13.125C18.75 13.3837 18.54 13.5938 18.2812 13.5938Z" fill="#D2D2D2"></path><path d="M14.0625 12.8906C13.8038 12.8906 13.5938 12.6806 13.5938 12.4219V9.60938C13.5938 9.22172 13.2783 8.90625 12.8906 8.90625C12.503 8.90625 12.1875 9.22172 12.1875 9.60938V12.4219C12.1875 12.6806 11.9775 12.8906 11.7188 12.8906C11.46 12.8906 11.25 12.6806 11.25 12.4219V9.60938C11.25 8.70469 11.9859 7.96875 12.8906 7.96875C13.7953 7.96875 14.5312 8.70469 14.5312 9.60938V12.4219C14.5312 12.6806 14.3212 12.8906 14.0625 12.8906Z" fill="#0A5078"></path><path d="M13.8281 11.25H11.9531C11.6944 11.25 11.4844 11.04 11.4844 10.7812C11.4844 10.5225 11.6944 10.3125 11.9531 10.3125H13.8281C14.0869 10.3125 14.2969 10.5225 14.2969 10.7812C14.2969 11.04 14.0869 11.25 13.8281 11.25Z" fill="#0A5078"></path><path d="M16.4062 13.125C15.6309 13.125 15 12.4941 15 11.7188V11.25C15 10.4747 15.6309 9.84375 16.4062 9.84375H17.3438C17.6025 9.84375 17.8125 10.0538 17.8125 10.3125V11.7188C17.8125 12.4941 17.1816 13.125 16.4062 13.125ZM16.4062 10.7812C16.148 10.7812 15.9375 10.9917 15.9375 11.25V11.7188C15.9375 11.977 16.148 12.1875 16.4062 12.1875C16.6645 12.1875 16.875 11.977 16.875 11.7188V10.7812H16.4062Z" fill="#0A5078"></path><path d="M18.2812 13.125C17.5059 13.125 16.875 12.4941 16.875 11.7188V11.25C16.875 10.9913 17.085 10.7812 17.3438 10.7812C17.6025 10.7812 17.8125 10.9913 17.8125 11.25V11.7188C17.8125 11.977 18.023 12.1875 18.2812 12.1875C18.54 12.1875 18.75 12.3975 18.75 12.6562C18.75 12.915 18.54 13.125 18.2812 13.125Z" fill="#0A5078"></path><path d="M6.5625 1.875V26.25H4.6875C4.17188 26.25 3.75 25.8281 3.75 25.3125V2.8125C3.75 2.29688 4.17188 1.875 4.6875 1.875H6.5625Z" fill="#00A0C8"></path><path d="M3.75 3.98438H6.5625V5.39062H3.75V3.98438Z" fill="#0082AA"></path><path d="M3.75 7.73438H6.5625V9.14062H3.75V7.73438Z" fill="#0082AA"></path><path d="M3.75 11.4844H6.5625V12.8906H3.75V11.4844Z" fill="#0082AA"></path><path d="M3.75 15.2344H6.5625V16.6406H3.75V15.2344Z" fill="#0082AA"></path><path d="M3.75 18.9844H6.5625V20.3906H3.75V18.9844Z" fill="#0082AA"></path><path d="M3.75 22.7344H6.5625V24.1406H3.75V22.7344Z" fill="#0082AA"></path><path d="M11.7188 22.0312H8.4375C8.17875 22.0312 7.96875 21.8213 7.96875 21.5625C7.96875 21.3037 8.17875 21.0938 8.4375 21.0938H11.7188C11.9775 21.0938 12.1875 21.3037 12.1875 21.5625C12.1875 21.8213 11.9775 22.0312 11.7188 22.0312Z" fill="#0A5078"></path><path d="M8.4375 22.9688H8.90625C9.165 22.9688 9.375 23.1787 9.375 23.4375C9.375 23.6963 9.165 23.9062 8.90625 23.9062H8.4375C8.17969 23.9062 7.96875 23.6953 7.96875 23.4375C7.96875 23.1797 8.17969 22.9688 8.4375 22.9688Z" fill="#0A5078"></path><path d="M12.1875 23.4375C12.1875 23.6953 11.9766 23.9062 11.7188 23.9062H10.3125C10.0538 23.9062 9.84375 23.6963 9.84375 23.4375C9.84375 23.1787 10.0538 22.9688 10.3125 22.9688H11.7188C11.9766 22.9688 12.1875 23.1797 12.1875 23.4375Z" fill="#0A5078"></path><path d="M26.25 17.812C26.25 18.8522 25.4034 19.687 24.375 19.687H23.9062V15.937H24.375C25.4039 15.937 26.25 16.7705 26.25 17.812Z" fill="#0A5078"></path><path d="M24.8438 15.998V19.6261C24.7969 19.6402 24.5578 19.687 24.375 19.687H23.9062C23.9062 19.687 23.9062 16.3214 23.9062 15.937H24.375C24.5391 15.937 24.6938 15.9558 24.8438 15.998Z" fill="#00325A"></path><path d="M19.2188 20.6278H17.3438C16.8258 20.6278 16.4062 20.2083 16.4062 19.6903V15.9403C16.4062 15.4223 16.8258 15.0028 17.3438 15.0028H19.2188V20.6278Z" fill="#0A5078"></path><path d="M19.2188 20.1558V20.6292H17.3438C16.8281 20.6292 16.4062 20.2073 16.4062 19.6917V19.2183C16.4062 19.7339 16.8281 20.1558 17.3438 20.1558H19.2188Z" fill="#00325A"></path><path d="M24.375 12.6577V22.9678C24.375 23.3348 23.9728 23.5594 23.6602 23.3667L19.2188 20.6292V15.0047L23.6597 12.2592C23.9719 12.0661 24.375 12.2906 24.375 12.6577Z" fill="#C80A50"></path><path d="M24.375 22.4995V22.9678C24.375 23.3334 23.9719 23.5589 23.6625 23.3667L19.2188 20.6292V20.1609L23.6625 22.8984C23.9719 23.0906 24.375 22.8652 24.375 22.4995Z" fill="#A00028"></path></svg>