<svg xmlns="http://www.w3.org/2000/svg" width="36" height="36" viewBox="0 0 36 36" fill="none"><path fill-rule="evenodd" clip-rule="evenodd" d="M7.75435 4.875H25.2456C26.0469 4.87499 26.7157 4.87497 27.262 4.91961C27.8318 4.96617 28.3668 5.06684 28.8727 5.3246C29.6489 5.72008 30.2799 6.35112 30.6754 7.1273C30.9332 7.63319 31.0338 8.16817 31.0804 8.738C31.125 9.28434 31.125 9.9531 31.125 10.7543V13.2813C32.6063 13.7008 33.7418 14.9173 34.0457 16.4453C34.1256 16.8465 34.1253 17.301 34.125 17.8901C34.125 17.9262 34.125 17.9628 34.125 18C34.125 18.0372 34.125 18.0738 34.125 18.1099C34.1253 18.699 34.1256 19.1535 34.0457 19.5547C33.7418 21.0827 32.6063 22.2992 31.125 22.7187V25.2457C31.125 26.0469 31.125 26.7157 31.0804 27.262C31.0338 27.8318 30.9332 28.3668 30.6754 28.8727C30.2799 29.6489 29.6489 30.2799 28.8727 30.6754C28.3668 30.9332 27.8318 31.0338 27.262 31.0804C26.7157 31.125 26.0469 31.125 25.2457 31.125L7.75432 31.125C6.9531 31.125 6.28434 31.125 5.738 31.0804C5.16817 31.0338 4.63318 30.9332 4.12729 30.6754C3.35112 30.2799 2.72008 29.6489 2.3246 28.8727C2.06683 28.3668 1.96617 27.8318 1.91961 27.262C1.87497 26.7157 1.87498 26.0469 1.875 25.2457V10.7543C1.87498 9.95312 1.87497 9.28435 1.91961 8.738C1.96617 8.16817 2.06683 7.63318 2.3246 7.12729C2.72008 6.35112 3.35112 5.72008 4.12729 5.3246C4.63318 5.06683 5.16817 4.96617 5.738 4.91961C6.28435 4.87497 6.95312 4.87498 7.75435 4.875ZM28.875 22.875H26.25C26.2129 22.875 26.1762 22.875 26.1401 22.875C25.551 22.8753 25.0965 22.8756 24.6953 22.7957C23.0589 22.4702 21.7798 21.1911 21.4543 19.5547C21.3744 19.1535 21.3747 18.699 21.375 18.1099C21.375 18.0738 21.375 18.0372 21.375 18C21.375 17.9628 21.375 17.9262 21.375 17.8901C21.3747 17.301 21.3744 16.8465 21.4543 16.4453C21.7798 14.8089 23.0589 13.5298 24.6953 13.2043C25.0965 13.1244 25.551 13.1247 26.1401 13.125C26.1762 13.125 26.2128 13.125 26.25 13.125H28.875V10.8C28.875 9.94136 28.8741 9.36504 28.8379 8.92122C28.8027 8.49054 28.7399 8.28461 28.6706 8.14877C28.4909 7.79597 28.204 7.50913 27.8512 7.32937C27.7154 7.26015 27.5095 7.19733 27.0788 7.16214C26.635 7.12588 26.0586 7.125 25.2 7.125H7.8C6.94136 7.125 6.36504 7.12588 5.92122 7.16214C5.49053 7.19733 5.28461 7.26015 5.14877 7.32936C4.79597 7.50913 4.50913 7.79597 4.32936 8.14877C4.26015 8.28461 4.19733 8.49053 4.16214 8.92122C4.12588 9.36504 4.125 9.94136 4.125 10.8V25.2C4.125 26.0586 4.12588 26.635 4.16214 27.0788C4.19733 27.5095 4.26015 27.7154 4.32936 27.8512C4.50913 28.204 4.79596 28.4909 5.14877 28.6706C5.28461 28.7399 5.49053 28.8027 5.92122 28.8379C6.36504 28.8741 6.94136 28.875 7.8 28.875L25.2 28.875C26.0586 28.875 26.635 28.8741 27.0788 28.8379C27.5095 28.8027 27.7154 28.7399 27.8512 28.6706C28.204 28.4909 28.4909 28.204 28.6706 27.8512C28.7399 27.7154 28.8027 27.5095 28.8379 27.0788C28.8741 26.635 28.875 26.0586 28.875 25.2V22.875ZM26.25 15.375C25.4991 15.375 25.2879 15.3805 25.1342 15.411C24.3904 15.559 23.809 16.1404 23.661 16.8842C23.6305 17.0379 23.625 17.2491 23.625 18C23.625 18.7509 23.6305 18.9621 23.661 19.1158C23.809 19.8596 24.3904 20.441 25.1342 20.589C25.2879 20.6196 25.4991 20.625 26.25 20.625H29.25C30.0009 20.625 30.2121 20.6196 30.3658 20.589C31.1096 20.441 31.691 19.8596 31.839 19.1158C31.8696 18.9621 31.875 18.7509 31.875 18C31.875 17.2491 31.8696 17.0379 31.839 16.8842C31.691 16.1404 31.1096 15.559 30.3658 15.411C30.2121 15.3805 30.0009 15.375 29.25 15.375H26.25Z" fill="white"></path></svg>