<svg xmlns="http://www.w3.org/2000/svg" width="36" height="36" viewBox="0 0 36 36" fill="none"><path fill-rule="evenodd" clip-rule="evenodd" d="M14.3411 1.875H21.6589C21.8292 1.87498 21.9617 1.87496 22.0871 1.88255C23.6777 1.97888 25.0706 2.98282 25.665 4.46138C25.7119 4.57793 25.7538 4.70366 25.8076 4.86521L25.8173 4.89425C25.8853 5.09828 25.9045 5.1544 25.9226 5.19938C26.1928 5.87145 26.8259 6.32779 27.5489 6.37158C27.597 6.37449 27.6619 6.37501 27.8916 6.37501L27.9622 6.375C28.4482 6.37494 28.7769 6.3749 29.0546 6.40241C31.7226 6.66676 33.8333 8.77738 34.0976 11.4454C34.1251 11.7231 34.1251 12.0379 34.125 12.5004L34.125 24.3482C34.125 25.5674 34.125 26.5508 34.06 27.3472C33.993 28.1672 33.8514 28.8874 33.5119 29.5537C32.9726 30.6121 32.1121 31.4726 31.0537 32.0119C30.3874 32.3514 29.6672 32.493 28.8472 32.56C28.0509 32.625 27.0674 32.625 25.8482 32.625H10.1518C8.93258 32.625 7.94917 32.625 7.15281 32.56C6.33285 32.493 5.61264 32.3514 4.94631 32.0119C3.8879 31.4726 3.02739 30.6121 2.4881 29.5537C2.14859 28.8874 2.00705 28.1672 1.94006 27.3472C1.87499 26.5508 1.875 25.5674 1.87501 24.3482L1.87501 12.5658C1.87501 12.5437 1.87501 12.5219 1.87501 12.5004C1.87495 12.0379 1.87491 11.7231 1.90242 11.4454C2.16676 8.77738 4.27739 6.66676 6.94541 6.40241C7.22312 6.3749 7.55185 6.37494 8.03781 6.375C8.06098 6.375 8.0845 6.37501 8.10839 6.37501C8.33815 6.37501 8.403 6.37449 8.45108 6.37158C9.1741 6.32779 9.80724 5.87145 10.0774 5.19938C10.0955 5.1544 10.1147 5.09829 10.1827 4.89425C10.186 4.88442 10.1892 4.87473 10.1924 4.86516C10.2462 4.70364 10.2881 4.57792 10.335 4.46138C10.9294 2.98282 12.3223 1.97888 13.9129 1.88255C14.0383 1.87496 14.1708 1.87498 14.3411 1.875ZM14.3717 4.12501C14.1566 4.12501 14.0973 4.1255 14.0489 4.12844C13.3259 4.17222 12.6928 4.62856 12.4226 5.30063C12.4045 5.34561 12.3853 5.40173 12.3173 5.60576L12.3076 5.63485C12.2538 5.79637 12.2119 5.92209 12.165 6.03863C11.5706 7.51719 10.1777 8.52113 8.5871 8.61746C8.46166 8.62506 8.32251 8.62504 8.14198 8.62501C8.13094 8.62501 8.11974 8.62501 8.10839 8.62501C7.52579 8.62501 7.3189 8.62642 7.16725 8.64145C5.56644 8.80006 4.30006 10.0664 4.14146 11.6672C4.12639 11.8193 4.12501 12.0134 4.12501 12.5658V24.3C4.12501 25.5787 4.12589 26.47 4.18258 27.164C4.23821 27.8448 4.3419 28.2359 4.49286 28.5322C4.81644 29.1673 5.33275 29.6836 5.96779 30.0072C6.26407 30.1581 6.65522 30.2618 7.33603 30.3174C8.02998 30.3741 8.92133 30.375 10.2 30.375H25.8C27.0787 30.375 27.97 30.3741 28.664 30.3174C29.3448 30.2618 29.736 30.1581 30.0322 30.0072C30.6673 29.6836 31.1836 29.1673 31.5072 28.5322C31.6581 28.2359 31.7618 27.8448 31.8174 27.164C31.8741 26.47 31.875 25.5787 31.875 24.3V12.5658C31.875 12.0134 31.8736 11.8193 31.8586 11.6672C31.7 10.0664 30.4336 8.80006 28.8328 8.64145C28.6811 8.62642 28.4742 8.62501 27.8916 8.62501L27.858 8.62501C27.6775 8.62504 27.5384 8.62506 27.4129 8.61746C25.8223 8.52113 24.4294 7.51719 23.835 6.03863C23.7881 5.92208 23.7462 5.79635 23.6924 5.63481L23.6827 5.60576C23.6147 5.40173 23.5955 5.34561 23.5774 5.30063C23.3072 4.62856 22.6741 4.17222 21.9511 4.12844C21.9027 4.1255 21.8434 4.12501 21.6283 4.12501H14.3717ZM18 13.875C15.3076 13.875 13.125 16.0576 13.125 18.75C13.125 21.4424 15.3076 23.625 18 23.625C20.6924 23.625 22.875 21.4424 22.875 18.75C22.875 16.0576 20.6924 13.875 18 13.875ZM10.875 18.75C10.875 14.815 14.065 11.625 18 11.625C21.935 11.625 25.125 14.815 25.125 18.75C25.125 22.685 21.935 25.875 18 25.875C14.065 25.875 10.875 22.685 10.875 18.75Z" fill="white"></path></svg>