<svg xmlns="http://www.w3.org/2000/svg" width="36" height="36" viewBox="0 0 36 36" fill="none"><path fill-rule="evenodd" clip-rule="evenodd" d="M10.125 6.75C10.125 4.05761 12.3076 1.875 15 1.875C17.6924 1.875 19.875 4.05761 19.875 6.75V7.875H20.29C21.3044 7.87499 22.1228 7.87499 22.7888 7.92043C23.4736 7.96715 24.0792 8.06566 24.6526 8.30318C26.0309 8.87408 27.1259 9.96912 27.6968 11.3474C27.9343 11.9208 28.0328 12.5264 28.0796 13.2112C28.1076 13.6213 28.1183 14.0892 28.1224 14.625H29.25C31.9424 14.625 34.125 16.8076 34.125 19.5C34.125 22.1924 31.9424 24.375 29.25 24.375H28.125V25.8482C28.125 27.0674 28.125 28.0508 28.06 28.8472C27.993 29.6672 27.8514 30.3874 27.5119 31.0537C26.9726 32.1121 26.1121 32.9726 25.0537 33.5119C24.3874 33.8514 23.6672 33.993 22.8472 34.06C22.0508 34.125 21.0674 34.125 19.8482 34.125H18.75C18.1287 34.125 17.625 33.6213 17.625 33V30.375C17.625 29.1324 16.6176 28.125 15.375 28.125C14.1324 28.125 13.125 29.1324 13.125 30.375V33C13.125 33.6213 12.6213 34.125 12 34.125H10.1518C8.93257 34.125 7.94916 34.125 7.1528 34.06C6.33284 33.993 5.61263 33.8514 4.9463 33.5119C3.88789 32.9726 3.02738 32.1121 2.48809 31.0537C2.14858 30.3874 2.00704 29.6672 1.94005 28.8472C1.87498 28.0508 1.87499 27.0674 1.875 25.8482L1.875 23.25C1.875 22.6287 2.37868 22.125 3 22.125H5.25C6.69975 22.125 7.875 20.9497 7.875 19.5C7.875 18.0503 6.69975 16.875 5.25 16.875H3C2.37868 16.875 1.875 16.3713 1.875 15.75L1.875 15.71C1.87499 14.6956 1.87499 13.8772 1.92043 13.2112C1.96715 12.5264 2.06566 11.9208 2.30318 11.3474C2.87408 9.96912 3.96912 8.87408 5.34741 8.30318C5.92082 8.06566 6.52639 7.96715 7.21122 7.92043C7.87723 7.87499 8.69556 7.87499 9.71004 7.875H10.125V6.75ZM15 4.125C13.5503 4.125 12.375 5.30025 12.375 6.75V9C12.375 9.62132 11.8713 10.125 11.25 10.125H9.75C8.68624 10.125 7.94476 10.1256 7.36438 10.1652C6.7941 10.2041 6.462 10.2769 6.20844 10.3819C5.38147 10.7244 4.72445 11.3815 4.38191 12.2084C4.27688 12.462 4.20412 12.7941 4.16521 13.3644C4.14134 13.7143 4.13163 14.1227 4.12769 14.625H5.25C7.94239 14.625 10.125 16.8076 10.125 19.5C10.125 22.1924 7.94239 24.375 5.25 24.375H4.125V25.8C4.125 27.0787 4.12588 27.97 4.18257 28.664C4.2382 29.3448 4.34189 29.7359 4.49285 30.0322C4.81643 30.6673 5.33274 31.1836 5.96778 31.5071C6.26406 31.6581 6.65521 31.7618 7.33602 31.8174C8.02997 31.8741 8.92132 31.875 10.2 31.875H10.875V30.375C10.875 27.8897 12.8897 25.875 15.375 25.875C17.8603 25.875 19.875 27.8897 19.875 30.375V31.875C21.1137 31.8749 21.9837 31.873 22.664 31.8174C23.3448 31.7618 23.7359 31.6581 24.0322 31.5071C24.6673 31.1836 25.1836 30.6673 25.5071 30.0322C25.6581 29.7359 25.7618 29.3448 25.8174 28.664C25.8741 27.97 25.875 27.0787 25.875 25.8V23.25C25.875 22.6287 26.3787 22.125 27 22.125H29.25C30.6997 22.125 31.875 20.9497 31.875 19.5C31.875 18.0503 30.6997 16.875 29.25 16.875H27C26.3787 16.875 25.875 16.3713 25.875 15.75C25.875 14.6862 25.8744 13.9448 25.8348 13.3644C25.7959 12.7941 25.7231 12.462 25.6181 12.2084C25.2756 11.3815 24.6185 10.7244 23.7916 10.3819C23.538 10.2769 23.2059 10.2041 22.6356 10.1652C22.0552 10.1256 21.3138 10.125 20.25 10.125H18.75C18.1287 10.125 17.625 9.62132 17.625 9V6.75C17.625 5.30025 16.4497 4.125 15 4.125Z" fill="white"></path></svg>