<svg xmlns="http://www.w3.org/2000/svg" width="36" height="36" viewBox="0 0 36 36" fill="none"><path fill-rule="evenodd" clip-rule="evenodd" d="M2.20453 2.20453C2.48165 1.9274 2.88302 1.81447 3.26399 1.90643L23.5243 6.79685C23.56 6.80546 23.596 6.81405 23.6321 6.82268C24.0597 6.92474 24.5159 7.03363 24.9008 7.28455C25.2354 7.50277 25.5158 7.79449 25.7207 8.13749C25.9562 8.53191 26.0471 8.99208 26.1322 9.42334C26.1394 9.45983 26.1465 9.49611 26.1537 9.53213L27.7674 17.6006C28.2722 17.4539 28.8101 17.462 29.3112 17.6248C29.6799 17.7446 29.9695 17.9497 30.2141 18.1573C30.4409 18.3498 30.6917 18.6006 30.9647 18.8737L32.1262 20.0352C32.3994 20.3083 32.6502 20.5592 32.8428 20.786C33.0504 21.0305 33.2554 21.3201 33.3752 21.6889C33.5465 22.2161 33.5465 22.784 33.3752 23.3112C33.2554 23.6799 33.0504 23.9695 32.8428 24.2141C32.6503 24.4408 32.3994 24.6916 32.1264 24.9647L24.9648 32.1262C24.6917 32.3994 24.4409 32.6502 24.2141 32.8428C23.9695 33.0504 23.6799 33.2554 23.3112 33.3752C22.784 33.5465 22.2161 33.5465 21.6889 33.3752C21.3201 33.2554 21.0305 33.0504 20.786 32.8428C20.5592 32.6503 20.3084 32.3994 20.0354 32.1264L18.8737 30.9647C18.6006 30.6917 18.3498 30.4409 18.1573 30.2141C17.9497 29.9695 17.7446 29.6799 17.6248 29.3112C17.462 28.8101 17.4539 28.2722 17.6006 27.7674L9.53213 26.1537C9.49611 26.1465 9.45983 26.1394 9.42334 26.1322C8.99208 26.0471 8.53191 25.9562 8.13749 25.7207C7.79449 25.5158 7.50277 25.2354 7.28455 24.9008C7.03363 24.5159 6.92474 24.0597 6.82268 23.6321C6.81405 23.596 6.80546 23.56 6.79685 23.5243L1.90643 3.26399C1.81447 2.88302 1.9274 2.48165 2.20453 2.20453ZM19.1303 25.7788L25.7788 19.1303L23.9474 9.97338C23.8902 9.68745 23.857 9.52411 23.8246 9.40288C23.8047 9.32832 23.7921 9.29811 23.7884 9.29022C23.7594 9.24192 23.7198 9.20079 23.6727 9.16988C23.665 9.16587 23.6353 9.15208 23.5616 9.12922C23.4417 9.09207 23.2798 9.05245 22.9963 8.98403L6.62278 5.03179L14.4887 12.8977C15.0837 12.5648 15.7697 12.375 16.5 12.375C18.7782 12.375 20.625 14.2218 20.625 16.5C20.625 18.7782 18.7782 20.625 16.5 20.625C14.2218 20.625 12.375 18.7782 12.375 16.5C12.375 15.7697 12.5648 15.0837 12.8977 14.4887L5.03179 6.62278L8.98403 22.9963C9.05245 23.2798 9.09207 23.4417 9.12922 23.5616C9.15208 23.6353 9.16587 23.665 9.16988 23.6727C9.20079 23.7198 9.24191 23.7594 9.29021 23.7884C9.29809 23.7921 9.32829 23.8047 9.40288 23.8246C9.52411 23.857 9.68745 23.8902 9.97338 23.9474L19.1303 25.7788ZM9.28799 23.7873C9.28811 23.7873 9.28895 23.7877 9.29021 23.7884L9.28799 23.7873ZM9.1711 23.6749C9.17108 23.6749 9.17063 23.6742 9.16988 23.6727L9.1711 23.6749ZM15.1563 15.1923C14.8275 15.5301 14.625 15.9914 14.625 16.5C14.625 17.5356 15.4645 18.375 16.5 18.375C17.5356 18.375 18.375 17.5356 18.375 16.5C18.375 15.4645 17.5356 14.625 16.5 14.625C15.9914 14.625 15.5301 14.8275 15.1923 15.1563C15.1865 15.1624 15.1805 15.1685 15.1745 15.1745C15.1685 15.1805 15.1624 15.1865 15.1563 15.1923ZM23.7873 9.28798C23.7873 9.28793 23.7877 9.28871 23.7884 9.29022L23.7873 9.28798ZM28.3927 19.7614C28.3928 19.7614 28.392 19.7618 28.3903 19.7625L28.3927 19.7614ZM28.3903 19.7625C28.378 19.769 28.3326 19.7958 28.2421 19.8725C28.094 19.9983 27.9086 20.1824 27.5985 20.4926L20.4926 27.5985C20.1824 27.9086 19.9983 28.094 19.8725 28.2421C19.7958 28.3326 19.7696 28.3767 19.7631 28.389C19.7407 28.4613 19.7407 28.5387 19.7631 28.611C19.7696 28.6233 19.7957 28.6675 19.8725 28.7579C19.9983 28.9061 20.1824 29.0914 20.4926 29.4016L21.5985 30.5075C21.9086 30.8176 22.094 31.0018 22.2421 31.1275C22.3325 31.2043 22.3767 31.2304 22.389 31.2369C22.4613 31.2593 22.5387 31.2593 22.611 31.2369C22.6234 31.2304 22.6675 31.2043 22.7579 31.1275C22.9061 31.0018 23.0914 30.8176 23.4016 30.5075L30.5075 23.4016C30.8176 23.0914 31.0018 22.9061 31.1275 22.7579C31.2043 22.6675 31.2304 22.6233 31.2369 22.611C31.2593 22.5387 31.2593 22.4613 31.2369 22.389C31.2304 22.3767 31.2043 22.3325 31.1275 22.2421C31.0018 22.094 30.8176 21.9086 30.5075 21.5985L29.4016 20.4926C29.0914 20.1824 28.9061 19.9983 28.7579 19.8725C28.6675 19.7958 28.6233 19.7696 28.611 19.7631C28.5387 19.7407 28.4626 19.7401 28.3903 19.7625ZM22.3927 31.2387C22.3927 31.2387 22.392 31.2384 22.3905 31.2377L22.3927 31.2387Z" fill="white"></path></svg>