<svg xmlns="http://www.w3.org/2000/svg" width="36" height="36" viewBox="0 0 36 36" fill="none"><path fill-rule="evenodd" clip-rule="evenodd" d="M17.9895 6.08011C14.5986 2.92401 9.46217 2.22542 5.50137 5.60961C1.29184 9.20633 0.684468 15.254 4.00813 19.5308C5.18117 21.0403 7.38051 23.2508 9.6068 25.3738C11.8518 27.5147 14.1863 29.6249 15.6731 30.9516L15.7004 30.976C15.9494 31.1982 16.183 31.4067 16.3955 31.5678C16.6291 31.745 16.8989 31.9141 17.2356 32.0151C17.7235 32.1615 18.2562 32.1615 18.7441 32.0151C19.0809 31.9141 19.3506 31.745 19.5842 31.5678C19.7967 31.4067 20.0303 31.1982 20.2793 30.976L20.3066 30.9516C21.7934 29.6249 24.1279 27.5147 26.3729 25.3738C28.5992 23.2508 30.7985 21.0403 31.9716 19.5308C35.2853 15.2667 34.7675 9.17437 30.4666 5.59974C26.4566 2.26683 21.3773 2.92266 17.9895 6.08011ZM17.1349 8.43489C14.467 5.31582 10.1677 4.58208 6.96297 7.32023C3.65735 10.1446 3.2067 14.8328 5.78473 18.1502C6.84052 19.5088 8.9215 21.6112 11.1596 23.7455C13.379 25.862 15.6929 27.9537 17.1712 29.2728C17.457 29.5279 17.6229 29.6748 17.7549 29.7749C17.8351 29.8357 17.873 29.8556 17.8838 29.8605C17.9491 29.8797 18.0306 29.8797 18.0959 29.8605C18.1067 29.8556 18.1446 29.8357 18.2248 29.7749C18.3568 29.6748 18.5227 29.5279 18.8085 29.2728C20.2868 27.9537 22.6007 25.862 24.8201 23.7455C27.0582 21.6112 29.1392 19.5088 30.195 18.1502C32.783 14.82 32.3719 10.109 29.0284 7.3301C25.7476 4.60323 21.5042 5.32573 18.8448 8.43489C18.631 8.68476 18.3187 8.82862 17.9899 8.82862C17.661 8.82862 17.3487 8.68476 17.1349 8.43489ZM18.0926 29.8618C18.0928 29.8617 18.0938 29.8612 18.0957 29.8606C18.0934 29.8616 18.0924 29.8619 18.0926 29.8618ZM17.8871 29.8618C17.887 29.8618 17.886 29.8615 17.884 29.8606C17.8861 29.8613 17.8872 29.8618 17.8871 29.8618ZM16.5799 11.6277C17.0338 11.66 17.4235 11.9625 17.5674 12.3941L19.7085 18.8175L20.7439 16.7468C20.9345 16.3657 21.324 16.1249 21.7501 16.1249H23.2501C23.8715 16.1249 24.3751 16.6286 24.3751 17.2499C24.3751 17.8712 23.8715 18.3749 23.2501 18.3749H22.4454L20.5064 22.253C20.3029 22.66 19.8743 22.9043 19.4204 22.8721C18.9665 22.8398 18.5768 22.5373 18.4329 22.1057L16.2917 15.6823L15.2564 17.753C15.0658 18.1341 14.6762 18.3749 14.2501 18.3749H12.7501C12.1288 18.3749 11.6251 17.8712 11.6251 17.2499C11.6251 16.6286 12.1288 16.1249 12.7501 16.1249H13.5548L15.4939 12.2468C15.6974 11.8398 16.126 11.5955 16.5799 11.6277Z" fill="white"></path></svg>