<svg xmlns="http://www.w3.org/2000/svg" width="36" height="36" viewBox="0 0 36 36" fill="none"><path fill-rule="evenodd" clip-rule="evenodd" d="M10.1518 3.375H25.8482C27.0674 3.37499 28.0508 3.37498 28.8472 3.44005C29.6672 3.50704 30.3874 3.64858 31.0537 3.98809C32.1121 4.52738 32.9726 5.38789 33.5119 6.4463C33.8514 7.11263 33.993 7.83284 34.06 8.6528C34.125 9.44916 34.125 10.4326 34.125 11.6518V18.3482C34.125 19.5674 34.125 20.5508 34.06 21.3472C33.993 22.1672 33.8514 22.8874 33.5119 23.5537C32.9726 24.6121 32.1121 25.4726 31.0537 26.0119C30.3874 26.3514 29.6672 26.493 28.8472 26.56C28.0508 26.625 27.0674 26.625 25.8482 26.625H10.1518C8.93257 26.625 7.94916 26.625 7.1528 26.56C6.33284 26.493 5.61263 26.3514 4.9463 26.0119C3.88789 25.4726 3.02738 24.6121 2.48809 23.5537C2.14858 22.8874 2.00704 22.1672 1.94005 21.3472C1.87498 20.5508 1.87499 19.5674 1.875 18.3482V11.6518C1.87499 10.4326 1.87498 9.44916 1.94005 8.6528C2.00704 7.83284 2.14858 7.11263 2.48809 6.4463C3.02738 5.38789 3.88789 4.52738 4.9463 3.98809C5.61263 3.64858 6.33284 3.50704 7.1528 3.44005C7.94916 3.37498 8.93258 3.37499 10.1518 3.375ZM7.33602 5.68257C6.65521 5.7382 6.26406 5.84189 5.96778 5.99285C5.33274 6.31643 4.81643 6.83274 4.49285 7.46778C4.34189 7.76406 4.2382 8.15521 4.18257 8.83602C4.12588 9.52997 4.125 10.4213 4.125 11.7V18.3C4.125 19.5787 4.12588 20.47 4.18257 21.164C4.2382 21.8448 4.34189 22.2359 4.49285 22.5322C4.81643 23.1673 5.33274 23.6836 5.96778 24.0071C6.26406 24.1581 6.65521 24.2618 7.33602 24.3174C8.02997 24.3741 8.92132 24.375 10.2 24.375H25.8C27.0787 24.375 27.97 24.3741 28.664 24.3174C29.3448 24.2618 29.7359 24.1581 30.0322 24.0071C30.6673 23.6836 31.1836 23.1673 31.5071 22.5322C31.6581 22.2359 31.7618 21.8448 31.8174 21.164C31.8741 20.47 31.875 19.5787 31.875 18.3V11.7C31.875 10.4213 31.8741 9.52997 31.8174 8.83602C31.7618 8.15521 31.6581 7.76406 31.5071 7.46778C31.1836 6.83274 30.6673 6.31643 30.0322 5.99285C29.7359 5.84189 29.3448 5.7382 28.664 5.68257C27.97 5.62588 27.0787 5.625 25.8 5.625H10.2C8.92132 5.625 8.02997 5.62588 7.33602 5.68257ZM18 31.125C15.786 31.125 13.697 31.6257 11.8442 32.5144C11.284 32.7831 10.6121 32.5467 10.3434 31.9865C10.0747 31.4263 10.311 30.7543 10.8712 30.4856C13.0228 29.4537 15.4439 28.875 18 28.875C20.5561 28.875 22.9772 29.4537 25.1288 30.4856C25.689 30.7543 25.9253 31.4263 25.6566 31.9865C25.3879 32.5467 24.716 32.7831 24.1558 32.5144C22.303 31.6257 20.214 31.125 18 31.125Z" fill="white"></path></svg>