<svg xmlns="http://www.w3.org/2000/svg" width="36" height="36" viewBox="0 0 36 36" fill="none"><path d="M31.9091 12.1791H22.9091V6.99089C22.9078 5.93283 22.4764 4.91847 21.7095 4.17031C20.9425 3.42214 19.9028 3.00127 18.8182 3H4.09091C3.00633 3.00127 1.96655 3.42214 1.19963 4.17031C0.432722 4.91847 0.00129916 5.93283 0 6.99089V16.569C0.00129916 17.6271 0.432722 18.6415 1.19963 19.3896C1.96655 20.1378 3.00633 20.5587 4.09091 20.5599V22.2281C4.0903 22.543 4.18574 22.851 4.3651 23.1128C4.54446 23.3746 4.79961 23.5785 5.09809 23.6984C5.39788 23.8202 5.72804 23.8522 6.04654 23.7903C6.36504 23.7285 6.65748 23.5756 6.88664 23.3512C6.91651 23.3231 6.94388 23.2927 6.96845 23.2602L9.00409 20.5599H13.0909V25.7481C13.0922 26.8062 13.5236 27.8205 14.2905 28.5687C15.0575 29.3168 16.0972 29.7377 17.1818 29.739H26.2522L29.1158 32.5326C29.3447 32.7558 29.6362 32.9078 29.9536 32.9693C30.271 33.0309 30.5999 32.9993 30.8989 32.8785C31.1979 32.7577 31.4534 32.5532 31.6332 32.2907C31.813 32.0282 31.909 31.7197 31.9091 31.404V29.739C32.9937 29.7377 34.0335 29.3168 34.8004 28.5687C35.5673 27.8205 35.9987 26.8062 36 25.7481V16.1699C35.9987 15.1119 35.5673 14.0975 34.8004 13.3494C34.0335 12.6012 32.9937 12.1803 31.9091 12.1791ZM8.59091 18.9636C8.4634 18.9642 8.33782 18.9939 8.22418 19.0503C8.11053 19.1067 8.01197 19.1883 7.93636 19.2884L5.72727 22.2098V19.7617C5.72727 19.5501 5.64107 19.347 5.48763 19.1974C5.33419 19.0477 5.12609 18.9636 4.90909 18.9636H4.09091C3.43992 18.9636 2.8156 18.7113 2.35528 18.2622C1.89497 17.8132 1.63636 17.2041 1.63636 16.569V6.99089C1.63636 6.35582 1.89497 5.74676 2.35528 5.2977C2.8156 4.84864 3.43992 4.59636 4.09091 4.59636H18.8182C19.4692 4.59636 20.0935 4.84864 20.5538 5.2977C21.0141 5.74676 21.2727 6.35582 21.2727 6.99089V12.1791H17.1818C16.3114 12.1816 15.4648 12.4572 14.7674 12.9653L12.1991 7.45783C12.134 7.31847 12.0292 7.20033 11.8972 7.11748C11.7652 7.03463 11.6115 6.99058 11.4545 6.99058C11.2976 6.99058 11.1439 7.03463 11.0119 7.11748C10.8799 7.20033 10.7751 7.31847 10.71 7.45783L6.61909 16.2378C6.57474 16.3334 6.55014 16.4365 6.5467 16.5414C6.54326 16.6463 6.56105 16.7508 6.59905 16.8489C6.63704 16.9471 6.6945 17.037 6.76814 17.1134C6.84177 17.1899 6.93014 17.2515 7.02818 17.2946C7.13332 17.3421 7.24776 17.3669 7.36364 17.3672C7.52066 17.3672 7.67436 17.323 7.80638 17.2401C7.9384 17.1572 8.04317 17.0389 8.10818 16.8995L9.378 14.1745H13.5327L13.5908 14.2982C13.2674 14.8719 13.0956 15.5152 13.0909 16.1699V18.9636H8.59091ZM12.789 12.5781H10.1217L11.4545 9.71747L12.789 12.5781ZM34.3636 25.7481C34.3636 26.3832 34.105 26.9922 33.6447 27.4413C33.1844 27.8903 32.5601 28.1426 31.9091 28.1426H31.0909C30.8739 28.1426 30.6658 28.2267 30.5124 28.3764C30.3589 28.5261 30.2727 28.7291 30.2727 28.9408V31.404L27.1694 28.3765C27.016 28.2268 26.8079 28.1427 26.5909 28.1426H17.1818C16.5308 28.1426 15.9065 27.8903 15.4462 27.4413C14.9859 26.9922 14.7273 26.3832 14.7273 25.7481V16.1699C14.7273 15.5349 14.9859 14.9258 15.4462 14.4768C15.9065 14.0277 16.5308 13.7754 17.1818 13.7754H31.9091C32.5601 13.7754 33.1844 14.0277 33.6447 14.4768C34.105 14.9258 34.3636 15.5349 34.3636 16.1699V25.7481Z" fill="white"></path><path d="M28.6364 18.1654H25.3636V16.569C25.3636 16.3573 25.2774 16.1543 25.124 16.0046C24.9706 15.855 24.7625 15.7709 24.5455 15.7709C24.3285 15.7709 24.1204 15.855 23.9669 16.0046C23.8135 16.1543 23.7273 16.3573 23.7273 16.569V18.1654H20.4545C20.2376 18.1654 20.0294 18.2495 19.876 18.3992C19.7226 18.5489 19.6364 18.7519 19.6364 18.9636C19.6364 19.1753 19.7226 19.3783 19.876 19.528C20.0294 19.6777 20.2376 19.7618 20.4545 19.7618H26.5255C26.3251 21.1178 25.6182 22.3538 24.5405 23.2322C23.9111 22.7194 23.4023 22.0801 23.049 21.3581C23.0045 21.261 22.9406 21.1735 22.861 21.1008C22.7813 21.0281 22.6876 20.9717 22.5853 20.9348C22.483 20.898 22.3741 20.8815 22.2652 20.8862C22.1562 20.891 22.0494 20.917 21.9509 20.9627C21.8523 21.0083 21.7642 21.0727 21.6916 21.1521C21.6189 21.2315 21.5633 21.3242 21.528 21.4249C21.4926 21.5255 21.4782 21.632 21.4857 21.7382C21.4931 21.8443 21.5223 21.9479 21.5714 22.0429C21.9516 22.812 22.4713 23.5075 23.1055 24.0959C22.3783 24.398 21.5959 24.5528 20.8055 24.5508C20.6996 24.5513 20.5948 24.5725 20.4973 24.6131C20.3999 24.6538 20.3118 24.713 20.2382 24.7874C20.1646 24.8618 20.107 24.9498 20.0689 25.0463C20.0307 25.1427 20.0127 25.2457 20.016 25.349C20.0226 25.5636 20.115 25.7672 20.2733 25.9164C20.4317 26.0655 20.6435 26.1483 20.8636 26.1472C22.1639 26.1467 23.4406 25.8078 24.5618 25.1654C25.6935 25.8051 26.9775 26.1437 28.2854 26.1472C28.3913 26.1467 28.4961 26.1255 28.5936 26.0849C28.691 26.0442 28.7792 25.985 28.8527 25.9106C28.9263 25.8362 28.9839 25.7482 29.0221 25.6517C29.0602 25.5553 29.0782 25.4523 29.0749 25.349C29.0683 25.1344 28.976 24.9308 28.8176 24.7816C28.6592 24.6325 28.4474 24.5497 28.2273 24.5508C27.4618 24.5479 26.7049 24.3942 26.0018 24.0991C27.2206 22.9429 27.9901 21.4099 28.179 19.7618H28.6364C28.8534 19.7618 29.0615 19.6777 29.2149 19.528C29.3683 19.3783 29.4545 19.1753 29.4545 18.9636C29.4545 18.7519 29.3683 18.5489 29.2149 18.3992C29.0615 18.2495 28.8534 18.1654 28.6364 18.1654Z" fill="white"></path></svg>