<svg xmlns="http://www.w3.org/2000/svg" width="100" height="100" viewBox="0 0 100 100" fill="none"><path d="M86.2363 83.3984L87.1094 77.5391L92.9686 73.2307C96.0953 66.8703 97.8516 59.7146 97.8516 52.1484C97.8516 25.7207 76.4277 4.29688 50 4.29688C23.5723 4.29688 2.14844 25.7207 2.14844 52.1484C2.14844 59.7146 3.90469 66.8703 7.03145 73.2307L12.8906 77.5391L13.7637 83.3984C18.7586 89.185 25.1146 93.7629 32.3363 96.6328H67.6637C74.8851 93.7629 81.2414 89.1846 86.2363 83.3984Z" fill="#49D88B"></path><path d="M10.9375 55.0781C10.9375 76.6518 28.4264 94.1406 50 94.1406C71.5736 94.1406 89.0625 76.6518 89.0625 55.0781H10.9375Z" fill="#38C674"></path><path d="M50 100C56.2391 100 62.1984 98.8047 67.6637 96.6328C63.9289 96.2529 60.8074 93.5131 59.998 89.7793L56.8359 75.1953H43.1641L40.0039 89.7793C39.1945 93.5131 36.0713 96.2529 32.3363 96.6328C37.8016 98.8047 43.7609 100 50 100Z" fill="#2D3C6B"></path><path d="M30.4688 20.8984V83.3984H13.7637C11.1094 80.3262 8.84199 76.9123 7.03145 73.2307L7.03125 26.7578C7.03125 23.5215 9.6543 20.8984 12.8906 20.8984H30.4688Z" fill="#2D3C6B"></path><path d="M92.9688 26.7578L92.9686 73.2307C91.158 76.9123 88.8906 80.3262 86.2363 83.3984H30.4688C27.2324 83.3984 24.6094 80.7754 24.6094 77.5391V26.7578C24.6094 23.5215 27.2324 20.8984 30.4688 20.8984H87.1094C90.3457 20.8984 92.9688 23.5215 92.9688 26.7578Z" fill="#3C5082"></path><path d="M24.6094 26.7578L20.7031 52.1484L24.3342 75.7502L25.4266 75.1953L31.2766 77.5391H35.5398L50 74.6094L64.3012 77.5391H68.7234L74.5734 75.1953L79.1879 77.5391H87.1094V26.7578H24.6094Z" fill="#4FABF7"></path><path d="M24.6094 75.6104V26.7578H12.8906V77.5391H20.8121L24.6094 75.6104Z" fill="#2E8BE6"></path><path d="M65.0291 29.5939C64.5996 25.8805 63.6801 26.2844 63.6801 19.2639V15.3283C63.6801 12.3176 63.2234 7.68672 60.6348 4.76582C58.0459 1.84512 54.4035 0 49.9219 0C48.0676 0 46.6514 0.126562 45.4992 0.333594C33.6146 4.2502 45.2889 39.6502 45.2889 39.6502C46.5748 39.9354 48.1037 40.1078 49.9219 40.1078C60.4537 40.1078 61.2918 34.3252 61.2918 34.3252L61.0728 36.4615C61.0182 36.9949 61.592 37.3619 62.0559 37.0932C64.2576 35.8184 65.4012 32.8102 65.0291 29.5939Z" fill="#2D3C6B"></path><path d="M45.2889 39.6502L44.6021 11.0602C42.2498 8.61719 42.725 1.12715 45.4992 0.333594C43.8668 0.626953 42.7656 1.08223 41.708 1.57031C39.9039 2.40273 39.7834 6.02871 39.7834 6.02871C37.5359 8.47754 36.1637 11.7426 36.1637 15.3285V19.2641C36.1637 26.2846 35.2441 25.8809 34.8146 29.5941C34.4426 32.8104 35.5863 35.8186 37.7879 37.0936C38.2519 37.3623 38.8256 36.9953 38.7709 36.4619L38.552 34.3258C38.552 34.3254 39.126 38.2834 45.2889 39.6502Z" fill="#213159"></path><path d="M83.3205 63.927L73.7098 47.0311C72.6652 45.1949 70.9148 43.8664 68.8654 43.3545L65.2428 42.4496H50V59.4238H66.6754H70.3467L74.0799 66.6807L68.7234 77.5391H79.1879L83.4146 69.4859C84.332 67.7379 84.2967 65.643 83.3205 63.927Z" fill="#F9BA8F"></path><path d="M69.8158 54.0322C73.267 58.148 75.6506 63.1295 74.0799 66.6807L66.6754 59.4238L66.6754 55.1854C66.6756 53.527 68.7502 52.7615 69.8158 54.0322Z" fill="#FCAD6D"></path><path d="M31.1346 43.3545C29.0852 43.8664 27.3348 45.1949 26.2902 47.0311L16.6795 63.927C15.7033 65.643 15.668 67.7379 16.5854 69.4859L20.8121 77.5391H31.2766L25.9199 66.6807L29.3756 59.4238H33.3246H50V42.4496H34.757L31.1346 43.3545Z" fill="#F9BA8F"></path><path d="M30.1842 54.0322C26.733 58.148 24.3492 63.1295 25.9199 66.6807L33.3246 59.4238V55.1854C33.3244 53.527 31.2496 52.7615 30.1842 54.0322Z" fill="#FCAD6D"></path><path d="M39.4771 41.2316L34.5988 42.4496V46.6365C34.5988 48.2205 34.123 49.774 33.202 51.0621C31.9709 52.785 30.4885 55.7586 31.3223 59.3877C31.4969 60.152 31.7605 61.2904 32.0795 62.666L35.5398 77.5391H52.8191L42.1021 41.232L39.4771 41.2316Z" fill="#E9EFFF"></path><path d="M68.5215 59.3877C69.3553 55.7584 67.8728 52.785 66.6418 51.0621C65.7207 49.774 65.2449 48.2203 65.2449 46.6365V42.4496L60.374 41.2336L42.1021 41.232C42.1021 41.232 39.7828 65.3879 52.8191 77.5391H64.3012C65.3973 72.8385 66.8227 66.7219 67.7641 62.6662C68.0832 61.2906 68.3451 60.1521 68.5215 59.3877Z" fill="white"></path><path d="M53.4582 43.0119L49.8949 40.1084H43.9756L39.4771 41.2316L39.868 41.7096C40.2752 42.2076 44.0164 46.5752 49.8947 46.5752L53.4582 43.0119Z" fill="#DAE2FE"></path><path d="M55.8682 40.1086L49.8949 40.1084V43.0121C48.9109 43.0121 48.1133 43.8098 48.1133 44.7937C48.1133 45.7777 48.9107 46.5752 49.8947 46.5752C49.9299 46.5752 49.965 46.575 50 46.5744C55.785 46.5246 59.5297 42.2439 59.9389 41.7543L60.374 41.2336L55.8682 40.1086Z" fill="#E9EFFF"></path><path d="M44.0059 40.108C44.0059 40.108 46.3807 43.0121 49.8949 43.0121C49.9039 43.0121 49.9129 43.0115 49.9219 43.0115C53.4215 42.9986 55.8379 40.108 55.8379 40.108V29.5533L44.0059 40.108Z" fill="#FCAD6D"></path><path d="M55.8379 29.5533C55.8379 29.5533 54.1426 40.108 44.0059 40.108V29.5533H55.8379Z" fill="#FD995B"></path><path d="M40.5104 20.6691C40.5104 20.6691 39.2082 17.4986 36.8869 18.2346C34.5656 18.9705 36.943 25.8412 41.4729 26.274L40.5104 20.6691Z" fill="#FD995B"></path><path d="M59.3334 20.6691C59.3334 20.6691 60.6355 17.4986 62.9568 18.2346C65.2781 18.9705 62.9008 25.8412 58.3709 26.274L59.3334 20.6691Z" fill="#FCAD6D"></path><path d="M60.9057 19.0625C60.9057 18.9064 60.9031 18.7516 60.8996 18.5973C58.2619 15.5809 55.4328 13.7578 52.884 12.66L54.4242 14.4783C54.7227 14.8307 54.4258 15.3658 53.9689 15.2994C49.2607 14.6143 46.6283 12.9043 45.423 11.8775C45.4297 11.8832 45.435 11.8881 45.4418 11.8937C39.2615 19.9918 43.2426 35.4795 52.4254 36.0895C57.2848 33.9662 60.9057 26.002 60.9057 19.0625Z" fill="#F9BA8F"></path><path d="M43.9537 19.0625C43.9537 16.3791 44.4969 13.9473 45.4418 11.8937C44.859 11.4002 44.6021 11.0602 44.6021 11.0602C42.6318 11.9947 41.6959 14.3021 41.0131 16.3039C40.6668 17.3191 39.9197 18.1475 38.9461 18.5979L38.9443 18.5969C38.9406 18.7514 38.9383 18.9062 38.9383 19.0623C38.9383 27.1506 43.8559 36.6363 49.9221 36.6363C50.785 36.6363 51.6244 36.4439 52.4299 36.0914C47.5719 33.9658 43.9537 26.0004 43.9537 19.0625Z" fill="#FCAD6D"></path><path d="M56.7885 20.2361C56.7937 19.7998 56.6174 19.3617 56.259 19.0453C55.6754 18.5299 54.7809 18.5299 54.1971 19.0453C53.8387 19.3617 53.6621 19.8 53.6676 20.2361C53.6744 20.8027 54.3703 21.0746 54.7711 20.674C55.0234 20.4217 55.4328 20.4217 55.6852 20.674C56.0855 21.0746 56.7814 20.8027 56.7885 20.2361Z" fill="#162544"></path><path d="M43.0553 20.2361C43.05 19.7998 43.2266 19.3617 43.5848 19.0453C44.1684 18.5299 45.0629 18.5299 45.6467 19.0453C46.0051 19.3617 46.1816 19.8 46.1762 20.2361C46.1693 20.8027 45.4734 21.0746 45.0727 20.674C44.8203 20.4217 44.4109 20.4217 44.1586 20.674C43.7582 21.0746 43.0623 20.8027 43.0553 20.2361Z" fill="#162544"></path><path d="M42.4311 16.5945C42.4311 16.2143 42.6746 15.8779 43.034 15.7535C44.0969 15.3859 45.1279 15.3842 46.1973 15.7539C46.5568 15.8783 46.8008 16.2141 46.8008 16.5945C46.8008 17.2041 46.2035 17.6197 45.6238 17.4311C44.9687 17.218 44.2631 17.218 43.608 17.4311C43.0281 17.6195 42.4311 17.2041 42.4311 16.5945Z" fill="#162544"></path><path d="M57.4127 16.5945C57.4127 16.2143 57.1691 15.8779 56.8098 15.7535C55.7469 15.3859 54.7158 15.3842 53.6465 15.7539C53.2869 15.8783 53.043 16.2141 53.043 16.5945C53.043 17.2041 53.6402 17.6197 54.2199 17.4311C54.875 17.218 55.5807 17.218 56.2357 17.4311C56.8156 17.6195 57.4127 17.2041 57.4127 16.5945Z" fill="#162544"></path><path d="M48.1756 23.7887L49.2287 22.1105C49.5494 21.5994 50.2941 21.5994 50.6148 22.1105L51.668 23.7887C52.01 24.3336 51.6184 25.0418 50.975 25.0418H48.8687C48.2254 25.042 47.8336 24.3336 48.1756 23.7887Z" fill="#FD995B"></path><path d="M47.2666 30.6475H52.5771C53.1066 30.1811 53.5119 29.5773 53.7375 28.8918C53.9414 28.2721 53.4711 27.6355 52.8188 27.6355H47.025C46.3727 27.6355 45.9021 28.2723 46.1063 28.8918C46.3318 29.5773 46.7371 30.1811 47.2666 30.6475Z" fill="#162544"></path><path d="M52.5771 30.6475C51.8697 31.2721 50.9396 31.6518 49.9219 31.6518C48.9041 31.6518 47.974 31.2721 47.2666 30.6475C47.975 30.0229 48.9041 29.6432 49.9219 29.6432C50.9396 29.6432 51.8688 30.0229 52.5771 30.6475Z" fill="#FF4155"></path><path d="M84.1797 9.76562H74.4141C71.1779 9.76562 68.5547 12.3889 68.5547 15.625V27.3438C68.5547 30.5799 71.1779 33.2031 74.4141 33.2031V38.2535C74.4141 39.9936 76.5178 40.865 77.7482 39.6346L84.1797 33.2031V9.76562Z" fill="#FFC839"></path><path d="M91.9922 9.76562H84.1797C80.9436 9.76562 78.3203 12.3889 78.3203 15.625V27.3438C78.3203 30.5799 80.9436 33.2031 84.1797 33.2031H91.9922C95.2283 33.2031 97.8516 30.5799 97.8516 27.3438V15.625C97.8516 12.3889 95.2283 9.76562 91.9922 9.76562Z" fill="#FFDD40"></path><path d="M74.4141 16.6016C74.4141 16.0623 74.8514 15.625 75.3906 15.625H91.0156C91.5549 15.625 91.9922 16.0623 91.9922 16.6016C91.9922 17.1408 91.5549 17.5781 91.0156 17.5781H75.3906C74.8514 17.5781 74.4141 17.1408 74.4141 16.6016Z" fill="#FFB332"></path><path d="M74.4141 26.3672C74.4141 25.8279 74.8514 25.3906 75.3906 25.3906H87.1094C87.6486 25.3906 88.0859 25.8279 88.0859 26.3672C88.0859 26.9064 87.6486 27.3438 87.1094 27.3438H75.3906C74.8514 27.3438 74.4141 26.9064 74.4141 26.3672Z" fill="#FFB332"></path><path d="M74.4141 21.4844C74.4141 20.9451 74.8514 20.5078 75.3906 20.5078H91.0156C91.5549 20.5078 91.9922 20.9451 91.9922 21.4844C91.9922 22.0236 91.5549 22.4609 91.0156 22.4609H75.3906C74.8514 22.4609 74.4141 22.0236 74.4141 21.4844Z" fill="#FFB332"></path><path d="M25.5859 9.76562H15.8203H8.00781C4.77168 9.76562 2.14844 12.3889 2.14844 15.625V27.3438C2.14844 30.5799 4.77168 33.2031 8.00781 33.2031H15.8203L22.2518 39.6346C23.4822 40.865 25.5859 39.9936 25.5859 38.2535V33.2031C28.8221 33.2031 31.4453 30.5799 31.4453 27.3438V15.625C31.4453 12.3889 28.8221 9.76562 25.5859 9.76562Z" fill="#FFDD40"></path><path d="M9.96094 27.3438V15.625C9.96094 12.3889 12.5842 9.76562 15.8203 9.76562H8.00781C4.77168 9.76562 2.14844 12.3889 2.14844 15.625V27.3438C2.14844 30.5799 4.77168 33.2031 8.00781 33.2031H15.8203C12.5842 33.2031 9.96094 30.5799 9.96094 27.3438Z" fill="#FFC839"></path><path d="M25.5859 16.6016C25.5859 16.0623 25.1486 15.625 24.6094 15.625H8.98438C8.44512 15.625 8.00781 16.0623 8.00781 16.6016C8.00781 17.1408 8.44512 17.5781 8.98438 17.5781H24.6094C25.1486 17.5781 25.5859 17.1408 25.5859 16.6016Z" fill="#FFB332"></path><path d="M21.6797 26.3672C21.6797 25.8279 21.2424 25.3906 20.7031 25.3906H8.98438C8.44512 25.3906 8.00781 25.8279 8.00781 26.3672C8.00781 26.9064 8.44512 27.3438 8.98438 27.3438H20.7031C21.2424 27.3438 21.6797 26.9064 21.6797 26.3672Z" fill="#FFB332"></path><path d="M25.5859 21.4844C25.5859 20.9451 25.1486 20.5078 24.6094 20.5078H8.98438C8.44512 20.5078 8.00781 20.9451 8.00781 21.4844C8.00781 22.0236 8.44512 22.4609 8.98438 22.4609H24.6094C25.1486 22.4609 25.5859 22.0236 25.5859 21.4844Z" fill="#FFB332"></path></svg>