<svg xmlns="http://www.w3.org/2000/svg" width="100" height="100" viewBox="0 0 100 100" fill="none"><path d="M89.465 79.2111C94.7535 71.5137 97.851 62.1936 97.851 52.1486C97.851 25.7211 76.4271 4.29727 49.9996 4.29727C23.5721 4.29727 2.14844 25.7211 2.14844 52.1486C2.14844 62.1978 5.24863 71.5219 10.5414 79.2213L89.465 79.2111Z" fill="#FF4155"></path><path d="M49.7412 3.61973C38.6352 3.61973 29.5998 12.6551 29.5998 23.7611C29.6256 24.1479 29.5283 24.357 29.7223 24.4969C29.9807 24.683 30.1348 24.9832 30.1348 25.2998V26.4412C30.1348 27.477 31.3607 27.9984 31.5236 27.4924C31.9352 26.2143 33.0736 26.1063 33.551 26.1143C33.565 26.1145 33.5789 26.1152 33.5936 26.1145C33.9865 26.116 34.3666 26.234 34.6934 26.4559C34.8531 26.5652 35.0793 26.4916 35.1398 26.3012C35.3193 25.7316 35.3805 25.1551 35.3406 24.615C35.1326 21.782 35.2869 16.8033 38.6574 15.2865C41.666 13.9313 44.6955 14.8705 46.6867 15.252C47.8119 15.5795 49.6654 16.3676 52.2645 15.5031C54.7088 14.69 58.2266 13.9924 61.1031 15.2863C64.4672 16.8004 64.626 21.7664 64.4211 24.5922C64.3836 25.1133 64.4367 25.6377 64.5787 26.1506C64.6287 26.3316 64.8332 26.4189 64.9975 26.334C66.0387 25.7982 67.5471 26.215 67.9588 27.4922C68.0039 27.6326 68.1453 27.7168 68.2904 27.692C68.9029 27.5836 69.3477 27.0576 69.3477 26.441V25.2996C69.3477 24.9832 69.5018 24.683 69.7602 24.4967C69.9547 24.3564 69.857 24.1439 69.8826 23.7609C69.8826 12.6551 60.8473 3.61973 49.7412 3.61973Z" fill="#41416B"></path><path d="M49.1818 4.28086C49.398 4.13047 49.4625 3.85527 49.3676 3.62441C38.4334 3.82441 29.5998 12.7801 29.5998 23.7611C29.6256 24.1479 29.5283 24.357 29.7223 24.4969C29.9807 24.683 30.1348 24.9832 30.1348 25.2998V26.4412C30.1348 27.477 31.3607 27.9984 31.5236 27.4924C31.9352 26.2143 33.0736 26.1063 33.551 26.1143C33.565 26.1145 33.5789 26.1152 33.5936 26.1145C33.9865 26.116 34.3666 26.234 34.6934 26.4559C34.8531 26.5652 35.0793 26.4916 35.1398 26.3012C35.3193 25.7316 35.3805 25.1551 35.3406 24.615C35.1326 21.782 35.2869 16.8033 38.6574 15.2865C41.6346 13.9455 44.6314 14.8506 46.6232 15.2393L46.7559 14.965C46.7561 14.965 42.9475 8.61582 49.1818 4.28086Z" fill="#35355E"></path><path d="M10.4061 79.026C19.016 91.6848 33.5363 100 49.9998 100C66.4678 100 80.9914 91.6805 89.6006 79.0158C88.4213 75.2518 86.2463 71.5682 82.2875 69.5303L82.2887 69.5275C82.0221 69.4006 81.6668 69.2137 81.0494 68.9717C68.3486 63.3258 66.8852 63.5789 65.5977 63.1492C65.6365 63.1875 65.6713 63.2299 65.6971 63.2811C65.6516 63.6619 65.8957 63.5994 65.0012 65.899C63.1471 70.4998 59.7758 74.5402 55.8689 77.6297C55.4742 77.9414 54.9281 77.9621 54.5098 77.6828C53.8359 77.2328 52.65 81.483 52.7143 82.6891C52.7369 83.4127 52.7199 82.5518 52.7258 92.3848C52.7258 92.7723 52.4049 93.0875 52.0104 93.0875C51.9773 93.0875 47.8756 93.0875 48.0002 93.0875C47.6059 93.0875 47.2848 92.7723 47.2848 92.3848C47.2908 82.552 47.2736 83.4117 47.2963 82.6891C47.2969 82.6805 47.2965 82.6717 47.2959 82.6633C47.1309 80.5371 46.1098 77.2762 45.5008 77.6828C45.0824 77.9623 44.5363 77.9414 44.1416 77.6297C40.2348 74.54 36.8635 70.4998 35.0094 65.899C34.1146 63.5994 34.359 63.6619 34.3135 63.2811C34.3393 63.2299 34.374 63.1875 34.4127 63.1492C33.1252 63.5789 31.6619 63.3258 18.9611 68.9717C18.3438 69.2137 17.9883 69.4004 17.7217 69.5275L17.723 69.5303C13.7604 71.5699 11.585 75.2584 10.4061 79.026Z" fill="#FFDD40"></path><path d="M34.3135 63.2811C34.3393 63.2299 34.374 63.1875 34.4127 63.1492C33.1252 63.5789 31.6619 63.3258 18.9611 68.9717C18.3438 69.2137 17.9883 69.4004 17.7217 69.5275L17.723 69.5303C13.7604 71.5699 11.585 75.2584 10.4061 79.026C13.5986 83.7199 17.6039 87.8166 22.2199 91.1135L23.7625 86.0232C24.4209 83.8506 25.9641 82.0559 28.0133 81.0793L39.424 75.6416V73.0848C37.5867 70.9148 36.0561 68.4965 35.0094 65.899C34.1146 63.5994 34.359 63.6619 34.3135 63.2811Z" fill="#FFC839"></path><path d="M38.2498 59.907L38.4627 61.0795L38.4693 61.1072C38.5311 61.3768 38.6012 61.648 38.6779 61.9137L38.6898 61.9539C38.7154 62.0424 38.7428 62.1324 38.7703 62.2207L38.7871 62.2744C38.8166 62.367 38.8471 62.4609 38.8801 62.5594L38.8912 62.5916C39.5926 64.6516 41.1248 67.6539 44.4387 70.2588C45.2977 70.9342 46.2363 71.5549 47.2287 72.1037C47.6744 72.3502 47.9992 72.725 48.168 73.1877C48.1791 73.2184 48.1961 73.2467 48.2178 73.2713C48.7266 73.8439 49.2127 74.4734 49.6627 75.1422C49.7598 75.2859 49.9982 75.2859 50.0947 75.1422C50.5428 74.4756 51.0303 73.8451 51.543 73.2686C51.5648 73.2441 51.5816 73.2158 51.5928 73.1852C51.7623 72.7234 52.0865 72.3494 52.5307 72.1037C59.657 68.1621 61.1895 62.3521 61.5156 59.8646C60.6434 57.8676 60.3648 55.3988 60.2996 53.5037C59.2471 54.7297 58.1426 55.7549 57.0871 56.5746C55.0309 58.1715 52.4934 59.0387 49.8799 59.0387C47.2664 59.0387 44.7289 58.1713 42.6727 56.5746C41.6172 55.7549 40.5125 54.7297 39.46 53.5037C39.3947 55.3988 39.116 57.8678 38.2438 59.8648L38.2498 59.907Z" fill="#FCA870"></path><path d="M42.6727 56.5746C41.6172 55.7549 40.5125 54.7297 39.46 53.5037C39.3947 55.3988 39.116 57.8678 38.2438 59.8648L38.2498 59.907L38.4627 61.0795L38.4693 61.1072C38.5311 61.3768 38.6012 61.648 38.6779 61.9137L38.6898 61.9539C38.7154 62.0424 38.7428 62.1324 38.7703 62.2207L38.7871 62.2744C38.8166 62.367 38.8471 62.4609 38.8801 62.5594L38.8912 62.5916C39.5926 64.6516 41.1248 67.6539 44.4387 70.2588C44.7088 70.4713 44.9893 70.6758 45.2744 70.877C48.1803 65.9836 49.1127 61.4389 49.4119 59.0289C46.965 58.9316 44.6059 58.0758 42.6727 56.5746Z" fill="#F9955F"></path><path d="M66.0797 28.6473C65.8738 28.11 65.6285 27.6164 65.3504 27.1801C64.8748 26.4342 64.6494 25.5227 64.7152 24.6133C64.9256 21.7107 64.7516 16.6051 61.2242 15.0178C58.2617 13.6852 54.666 14.3939 52.1715 15.2236C50.6939 15.7154 49.0666 15.7152 47.5891 15.2236C45.0943 14.3939 41.4988 13.6844 38.5363 15.0178C37.0193 15.7004 34.549 17.8578 35.0469 24.6365C35.1125 25.5295 34.8863 26.433 34.4102 27.1805C34.14 27.6041 33.9006 28.0822 33.6986 28.601C33.107 30.1209 32.9156 31.8076 33.1449 33.4791L33.9723 39.4959C33.9723 49.4605 40.0012 55.2176 42.5932 57.2305C44.6619 58.8373 47.25 59.7223 49.8803 59.7223C52.5103 59.7223 55.0984 58.8375 57.1672 57.2305C59.7592 55.2178 65.7881 49.4604 65.7867 39.5139L66.6152 33.4805C66.8426 31.8256 66.6574 30.1543 66.0797 28.6473Z" fill="#F9BD91"></path><path d="M49.5541 57.2303C47.7102 55.2176 43.4215 49.4604 43.4215 39.4957L42.833 33.4789C42.6697 31.8074 42.8059 30.1207 43.2268 28.6008C43.3705 28.0818 43.5408 27.6037 43.733 27.1801C44.0719 26.4326 44.2326 25.5293 44.1859 24.6361C43.8318 17.8574 45.5891 15.7 46.6682 15.0174C46.6973 14.999 46.7266 14.9828 46.7559 14.965C44.335 14.266 41.1832 13.8264 38.5363 15.0178C37.0193 15.7004 34.549 17.8578 35.0469 24.6365C35.1125 25.5295 34.8863 26.433 34.4102 27.1805C34.14 27.6041 33.9006 28.0822 33.6986 28.601C33.107 30.1209 32.9156 31.8076 33.1449 33.4791L33.9723 39.4959C33.9723 49.4605 40.0012 55.2176 42.5932 57.2305C44.6619 58.8373 47.25 59.7223 49.8803 59.7223C50.8398 59.7223 51.7938 59.6029 52.7189 59.3754C51.5728 58.9791 50.4889 58.251 49.5541 57.2303Z" fill="#FCA870"></path><path d="M50.0633 75.2736C48.643 73.0785 47.2428 71.9258 47.2428 71.9258L43.6246 77.7369C46.2311 79.4146 46.6967 83.5133 46.7797 84.8338C46.9959 80.5898 48.6031 77.3646 50.0633 75.2736Z" fill="#FF9100"></path><path d="M52.9629 93.2994V85.2531C52.9629 85.2531 53.0082 79.75 56.1361 77.7369L52.518 71.9258C52.518 71.9258 46.7525 76.6631 46.7525 85.2533V93.2996L52.9629 93.2994Z" fill="#FFB332"></path><path d="M47.3553 71.8758C40.1395 67.885 38.7486 61.9434 38.4818 59.6678C38.4346 59.2646 37.968 59.0654 37.6408 59.3055L32.7564 62.8865C32.4957 63.0777 32.3707 63.4076 32.4494 63.7209C34.3928 71.4561 40.64 77.1039 43.3939 79.2812C44.0949 79.8355 45.1172 79.6748 45.616 78.9334C46.3215 77.885 47.3193 76.4021 48.143 75.1783C48.9117 74.0355 48.5605 72.5424 47.3553 71.8758Z" fill="#FFC839"></path><path d="M44.6 70.0543C39.7672 66.2555 38.7104 61.617 38.4818 59.6678C38.4346 59.2646 37.968 59.0654 37.6408 59.3055L32.7564 62.8865C32.4957 63.0777 32.3707 63.4076 32.4494 63.7209C33.693 68.6709 36.6988 72.7639 39.424 75.6416C41.5875 68.5393 44 69.6396 44.6 70.0543Z" fill="#FFB332"></path><path d="M67.0043 62.8865L62.1199 59.3055C61.7928 59.0654 61.3262 59.2646 61.2789 59.6678C61.0121 61.9434 59.6213 67.885 52.4055 71.8758C51.2002 72.5424 50.8488 74.0355 51.618 75.1783C52.4414 76.4021 53.4393 77.885 54.1449 78.9334C54.6437 79.6748 55.6662 79.8354 56.367 79.2812C59.1209 77.1039 65.3682 71.4561 67.3113 63.7209C67.39 63.4074 67.265 63.0775 67.0043 62.8865Z" fill="#FFC839"></path><path d="M51.3723 82.9072C51.3723 83.5811 50.8262 84.1273 50.1521 84.1273C49.4783 84.1273 48.932 83.5811 48.932 82.9072C48.932 82.2334 49.4783 81.6871 50.1521 81.6871C50.8262 81.6871 51.3723 82.2334 51.3723 82.9072Z" fill="#FFC839"></path><path d="M51.1004 88.959C51.1004 89.6328 50.5541 90.1791 49.8803 90.1791C49.2064 90.1791 48.6602 89.6328 48.6602 88.959C48.6602 88.2852 49.2064 87.7389 49.8803 87.7389C50.5541 87.7389 51.1004 88.2852 51.1004 88.959Z" fill="#FFC839"></path><path d="M46.7523 93.0275V95.3072C46.7523 95.8779 47.2211 96.3404 47.7992 96.3404H51.916C52.4941 96.3404 52.9629 95.8779 52.9629 95.3072V93.0275H46.7523Z" fill="#FF9100"></path><path d="M49.7414 0C36.8482 0 26.3961 10.452 26.3961 23.3451V26.1203H29.8945V23.7609C29.8945 12.8 38.7803 3.91426 49.7412 3.91426C60.7023 3.91426 69.5881 12.8 69.5881 23.7609V26.1203H73.0865V23.3451C73.0865 10.452 62.6346 0 49.7414 0Z" fill="#E3E7FC"></path><path d="M26.3961 23.3451V26.1203H29.8945V23.7609C29.8945 12.9125 38.599 4.09824 49.4049 3.91855C49.4277 3.76602 49.3885 3.60371 49.2805 3.475C48.7533 2.84629 48.1529 1.58848 49.7414 0C36.8482 0 26.3961 10.452 26.3961 23.3451Z" fill="#C8CEFC"></path><path d="M72.1734 24.015H70.3377C69.6283 24.015 69.0531 24.5902 69.0531 25.2996V26.441C69.0531 27.0221 68.551 27.4664 67.9723 27.4143L67.9611 27.4133C68.0328 27.6287 68.0721 27.8574 68.0721 28.0943V43.398C68.0721 43.635 68.033 43.8637 67.9611 44.0791C69.2092 43.9682 70.3814 43.6107 71.4236 43.0586C72.6773 42.3945 73.4578 41.0879 73.4578 39.6691V30.9012V25.2996C73.458 24.59 72.8828 24.015 72.1734 24.015Z" fill="#C8CEFC"></path><path d="M71.4236 33.5371C70.4125 34.0729 69.2783 34.423 68.0721 34.5449L68.0721 43.398C68.0721 43.635 68.033 43.8637 67.9611 44.0791C69.2092 43.9682 70.3814 43.6107 71.4236 43.0586C72.6773 42.3945 73.4578 41.0879 73.4578 39.6691V30.9012L73.458 30.1475C73.458 31.5664 72.6773 32.8731 71.4236 33.5371Z" fill="#B8C0F4"></path><path d="M66.0742 45.6725H65.8967C64.6457 45.6725 63.6221 44.649 63.6221 43.398V28.0943C63.6221 26.8434 64.6457 25.8197 65.8967 25.8197H66.0742C67.3252 25.8197 68.3488 26.8434 68.3488 28.0943V43.398C68.3486 44.649 67.3252 45.6725 66.0742 45.6725Z" fill="#E3E7FC"></path><path d="M27.3092 24.015H29.1449C29.8543 24.015 30.4295 24.5902 30.4295 25.2996V26.441C30.4295 27.0221 30.9316 27.4664 31.5104 27.4143L31.5215 27.4133C31.4498 27.6287 31.4107 27.8574 31.4107 28.0943V43.398C31.4107 43.635 31.4498 43.8637 31.5215 44.0791C30.2734 43.9682 29.1012 43.6107 28.059 43.0586C26.8053 42.3945 26.0248 41.0879 26.0248 39.6691V30.9012V25.2996C26.0248 24.59 26.5998 24.015 27.3092 24.015Z" fill="#B8C0F4"></path><path d="M31.4105 34.3496C30.2043 34.2277 29.0699 33.8775 28.059 33.3418C26.8053 32.6777 26.0248 31.3711 26.0248 29.9521V30.9012V39.6691C26.0248 41.0879 26.8053 42.3945 28.059 43.0586C29.1012 43.6107 30.2734 43.9682 31.5215 44.0791C31.4498 43.8637 31.4107 43.635 31.4107 43.398L31.4105 34.3496Z" fill="#A4B0EA"></path><path d="M33.4084 45.6725H33.5861C34.8371 45.6725 35.8607 44.649 35.8607 43.398V28.0943C35.8607 26.8434 34.8373 25.8197 33.5861 25.8197H33.4084C32.1574 25.8197 31.134 26.8434 31.134 28.0943V43.398C31.134 44.649 32.1574 45.6725 33.4084 45.6725Z" fill="#E3E7FC"></path><path d="M66.0742 36.0131H65.8965C64.6455 36.0131 63.6221 34.9895 63.6221 33.7387V43.398C63.6221 44.649 64.6457 45.6725 65.8967 45.6725H66.0742C67.3252 45.6725 68.3486 44.649 68.3488 43.398L68.3486 33.7387C68.3488 34.9895 67.3252 36.0131 66.0742 36.0131Z" fill="#C8CEFC"></path><path d="M33.5861 36.0131H33.4084C32.1574 36.0131 31.134 34.9895 31.134 33.7387V43.398C31.134 44.649 32.1574 45.6725 33.4084 45.6725H33.5861C34.8371 45.6725 35.8607 44.649 35.8607 43.398V33.7387C35.8605 34.9895 34.8371 36.0131 33.5861 36.0131Z" fill="#C8CEFC"></path><path d="M58.2566 60.1553C58.0176 59.3777 58.4543 58.5537 59.2318 58.3147C62.1715 57.4113 64.8102 56.2807 66.5059 55.491C67.133 55.1992 67.6152 54.6529 67.8287 53.9924L70.1506 46.8059C70.6047 45.4008 69.7693 44.45 69.5947 43.9584C69.235 43.2291 69.5348 42.3459 70.2643 41.9857C70.9939 41.626 71.8768 41.926 72.2369 42.6553C72.3713 43.0746 73.8318 44.9932 72.9539 47.7115L70.632 54.898C70.1676 56.3357 69.1166 57.5254 67.7492 58.1619C65.9693 58.9902 63.1971 60.1779 60.0973 61.1305C59.3162 61.3709 58.4945 60.9295 58.2566 60.1553Z" fill="#E3E7FC"></path><path d="M51.3574 63.8439C49.8932 63.8439 48.7061 62.657 48.7061 61.1926C48.7061 59.7283 49.893 58.5412 51.3574 58.5412C53.0314 58.5412 55.0213 58.241 57.2715 57.6494C58.6885 57.2764 60.1375 58.1228 60.51 59.5391C60.8824 60.9553 60.0365 62.4051 58.6203 62.7775C55.9299 63.485 53.4863 63.8439 51.3574 63.8439Z" fill="#FF4155"></path><path d="M54.0322 60.3449C54.0322 59.4857 54.3965 58.7131 54.9764 58.1674C53.6492 58.4146 52.4367 58.5412 51.3574 58.5412C49.893 58.5412 48.7061 59.7283 48.7061 61.1926C48.7061 62.657 49.8932 63.8439 51.3574 63.8439C52.898 63.8439 54.6057 63.6531 56.45 63.2812C55.0723 63.0129 54.0322 61.801 54.0322 60.3449Z" fill="#E80054"></path><path d="M82.5322 3.61797H69.0691C61.8941 3.61797 56.0234 9.48848 56.0234 16.6637C56.0234 23.8389 61.8939 29.7094 69.0691 29.7094H78.2434C78.6791 29.7094 79.0324 30.0627 79.0324 30.4984V35.0736C79.0324 35.5906 79.5938 35.9145 80.0404 35.6541C82.5596 34.1854 83.8068 32.1416 84.4236 30.4221C84.6156 29.8867 85.0547 29.4744 85.6074 29.3396C91.3113 27.948 95.5781 22.7803 95.5781 16.6635C95.5779 9.48867 89.7074 3.61797 82.5322 3.61797Z" fill="#49DAFC"></path><path d="M56.0234 16.6637C56.0234 23.8389 61.8939 29.7094 69.0691 29.7094L73.243 29.7094C68.0158 24.5861 72.8701 18.282 72.8701 18.282L71.8994 15.0668C66.9088 9.20976 71.8994 3.62441 71.8994 3.62441L71.8898 3.61797H69.0691C61.8941 3.61797 56.0234 9.48848 56.0234 16.6637Z" fill="#26C6F7"></path><path d="M66.6363 16.8211C66.6363 17.79 65.851 18.5754 64.882 18.5754C63.9131 18.5754 63.1275 17.79 63.1275 16.8211C63.1275 15.8521 63.9131 15.0668 64.882 15.0668C65.851 15.0668 66.6363 15.8521 66.6363 16.8211Z" fill="white"></path><path d="M73.6535 16.8211C73.6535 17.79 72.8682 18.5754 71.8992 18.5754C70.9303 18.5754 70.1449 17.79 70.1449 16.8211C70.1449 15.8521 70.9305 15.0668 71.8994 15.0668C72.8684 15.0668 73.6535 15.8521 73.6535 16.8211Z" fill="white"></path><path d="M80.6709 16.8211C80.6709 17.79 79.8855 18.5754 78.9166 18.5754C77.9476 18.5754 77.1623 17.79 77.1623 16.8211C77.1623 15.8521 77.9476 15.0668 78.9166 15.0668C79.8855 15.0668 80.6709 15.8521 80.6709 16.8211Z" fill="white"></path><path d="M87.6883 16.8211C87.6883 17.79 86.9029 18.5754 85.934 18.5754C84.965 18.5754 84.1797 17.79 84.1797 16.8211C84.1797 15.8521 84.965 15.0668 85.934 15.0668C86.9029 15.0668 87.6883 15.8521 87.6883 16.8211Z" fill="white"></path></svg>