<svg xmlns="http://www.w3.org/2000/svg" width="100" height="100" viewBox="0 0 100 100" fill="none"><g clip-path="url(#clip0_304_2249)"><path d="M49.9998 4.29736C23.5723 4.29736 2.14844 25.7212 2.14844 52.1487C2.14844 59.4542 3.78828 66.3757 6.71543 72.5694L15.0354 84.8128C23.7688 94.1571 36.201 100 49.9998 100C76.4273 100 97.8512 78.5763 97.8512 52.1487C97.8512 25.7212 76.4273 4.29736 49.9998 4.29736Z" fill="#746BF9"></path><path d="M16.3806 77.7425C15.789 77.7425 15.2198 77.4146 14.9393 76.8485C14.5454 76.0532 14.8706 75.0892 15.6657 74.6948L32.8601 66.1747C33.6554 65.7818 34.6194 66.1062 35.0136 66.9013C35.4077 67.6966 35.0823 68.6607 34.2872 69.055L17.0929 77.5751C16.8636 77.6884 16.62 77.7425 16.3806 77.7425Z" fill="#8F8FF9"></path><path d="M47.5094 47.2644C47.4949 47.2644 47.4805 47.2642 47.4658 47.2639C46.5785 47.2404 45.8783 46.5019 45.9019 45.6146L46.3902 27.2226C46.4139 26.3355 47.1533 25.6428 48.0394 25.659C48.9268 25.6824 49.6269 26.4209 49.6033 27.3082L49.1148 45.7002C49.0918 46.5726 48.3769 47.2644 47.5094 47.2644Z" fill="#8F8FF9"></path><path d="M52.9124 19.7457C52.3985 19.7457 51.8936 19.4998 51.5827 19.0431C51.0831 18.3095 51.2727 17.3097 52.0063 16.8101L67.1639 6.48569C67.8975 5.98569 68.8973 6.17573 69.3969 6.90893C69.8965 7.64253 69.7069 8.64233 68.9733 9.14194L53.8157 19.4665C53.5387 19.6552 53.2237 19.7457 52.9124 19.7457Z" fill="#8F8FF9"></path><path d="M83.4974 37.3374C82.8451 37.3374 82.2318 36.9376 81.991 36.2903L72.2957 10.2292C71.9861 9.39718 72.4097 8.47218 73.2416 8.16261C74.0734 7.85363 74.9988 8.27667 75.3082 9.10851L85.0035 35.1694C85.313 36.0013 84.8894 36.9267 84.0576 37.236C83.8728 37.3048 83.6835 37.3374 83.4974 37.3374Z" fill="#8F8FF9"></path><path d="M80.9762 77.7543C80.8729 77.7543 80.7682 77.7445 80.6633 77.7238C79.7924 77.5518 79.226 76.7067 79.3979 75.8359L83.5112 54.9932C83.6831 54.1223 84.5296 53.5572 85.3991 53.7276C86.27 53.8996 86.8364 54.7447 86.6645 55.6154L82.5512 76.4582C82.3999 77.2238 81.7282 77.7543 80.9762 77.7543Z" fill="#8F8FF9"></path><path d="M59.7782 98.9985L52.8391 74.9772C52.5928 74.1245 51.702 73.6319 50.8491 73.8794C49.9963 74.1257 49.5047 75.0165 49.751 75.8692L56.5905 99.5462C57.6649 99.3981 58.7282 99.2167 59.7782 98.9985Z" fill="#8F8FF9"></path><path d="M41.2213 73.4968C40.4172 73.1208 39.4605 73.4683 39.085 74.2724L29.2646 95.2861C30.2279 95.7499 31.21 96.1802 32.2076 96.5802L41.9967 75.6333C42.3727 74.8292 42.0254 73.8728 41.2213 73.4968Z" fill="#8F8FF9"></path><path d="M10.584 73.7361C10.5373 73.7361 10.4904 73.7341 10.443 73.73C9.55878 73.6531 8.90429 72.874 8.98124 71.9896L11.5869 42.0402C11.6639 41.1558 12.4445 40.5013 13.3271 40.5784C14.2113 40.6554 14.8658 41.4345 14.7889 42.3189L12.1832 72.2683C12.1103 73.1052 11.4086 73.7361 10.584 73.7361Z" fill="#8F8FF9"></path><path d="M20.4981 33.9452C19.8585 33.9452 19.2538 33.5606 19.0036 32.9297C18.6766 32.1045 19.0805 31.1707 19.9057 30.8436L42.0454 22.0705C42.87 21.7434 43.8044 22.1475 44.1315 22.9727C44.4585 23.7979 44.0545 24.7317 43.2295 25.0588L21.0899 33.8319C20.8956 33.9086 20.6952 33.9452 20.4981 33.9452Z" fill="#8F8FF9"></path><path d="M78.3833 41.5797C78.0962 41.5797 77.8056 41.5027 77.5429 41.3414L52.0681 25.6738C51.3122 25.2088 51.0761 24.2191 51.5411 23.4631C52.0062 22.7068 52.9958 22.4715 53.7521 22.9359L79.2269 38.6033C79.9829 39.0684 80.2189 40.0582 79.7538 40.8141C79.4503 41.3078 78.9232 41.5797 78.3833 41.5797Z" fill="#8F8FF9"></path><path d="M61.3511 56.955C60.7084 56.955 60.1015 56.5669 59.8537 55.9321C59.5308 55.1054 59.9394 54.1733 60.7662 53.8505L76.9515 47.5304C77.7779 47.2077 78.7101 47.6159 79.0332 48.4427C79.356 49.2694 78.9474 50.2015 78.1207 50.5243L61.9353 56.8444C61.7431 56.9192 61.5455 56.955 61.3511 56.955Z" fill="#8F8FF9"></path><path d="M73.5524 80.6999C73.2385 80.6999 72.9215 80.6083 72.6434 80.4169L58.6822 70.8202C57.9508 70.3173 57.7654 69.3169 58.2682 68.5856C58.7711 67.8542 59.7717 67.6687 60.5029 68.1716L74.4641 77.7683C75.1955 78.271 75.3809 79.2716 74.8781 80.0028C74.5666 80.4564 74.0639 80.6999 73.5524 80.6999Z" fill="#8F8FF9"></path><path d="M35.1123 53.181C34.7672 53.181 34.4195 53.0702 34.1262 52.8417L18.4885 40.6642C17.7881 40.1189 17.6625 39.1093 18.2078 38.4087C18.7531 37.7085 19.7629 37.5829 20.4633 38.1283L36.1008 50.3058C36.801 50.8511 36.9268 51.8609 36.3815 52.5611C36.0647 52.9681 35.5908 53.181 35.1123 53.181Z" fill="#8F8FF9"></path><path d="M47.0835 76.5132C55.6898 76.5132 62.6665 69.5364 62.6665 60.9302C62.6665 52.3239 55.6898 45.3472 47.0835 45.3472C38.4772 45.3472 31.5005 52.3239 31.5005 60.9302C31.5005 69.5364 38.4772 76.5132 47.0835 76.5132Z" fill="#FF4155"></path><path d="M45.6993 67.5666C45.5255 67.4068 45.4729 67.1539 45.5688 66.9381L45.7446 66.5428C45.7897 66.441 45.8017 66.3309 45.7835 66.226L43.8985 67.7453C43.5202 68.0502 43.0276 67.9465 42.8095 67.5125C42.2435 66.3859 41.914 65.2471 41.6835 63.8465C41.6026 63.3555 41.7124 62.8568 41.9823 62.4492C40.2173 63.5586 37.188 65.3158 35.1882 65.9354C35.1815 65.9375 35.1751 65.94 35.1685 65.9422L35.9403 71.8219C38.7696 74.7162 42.7165 76.5137 47.0839 76.5137C47.1847 76.5137 47.2849 76.5117 47.3851 76.5098V69.0584C47.3851 68.9045 47.3206 68.7574 47.2071 68.6533L45.6993 67.5666Z" fill="#BEC8F7"></path><path d="M42.7704 67.5959L42.7599 67.4084C42.2253 66.3156 41.9067 65.2041 41.6835 63.8465C41.6026 63.3555 41.7124 62.8568 41.9823 62.4492C40.2173 63.5586 37.188 65.3158 35.1882 65.9352C35.1815 65.9373 35.1751 65.9398 35.1685 65.942L35.8247 70.94C35.8317 70.9391 35.838 70.9389 35.845 70.9377C40.7077 70.1592 42.7704 67.5959 42.7704 67.5959Z" fill="#A2B6F4"></path><path d="M45.4954 65.9738C46.0491 66.551 44.9515 67.1117 45.5604 67.6711C46.7683 68.7279 47.047 68.9656 47.0841 69.0074C47.1208 68.9658 47.4071 68.7215 48.6075 67.6711C48.7886 67.5047 48.8433 67.2412 48.7435 67.0166C48.6222 66.6914 48.4614 66.533 48.5271 66.2457C48.5694 66.0559 48.6862 65.9602 48.8151 65.8234C49.6251 64.9594 50.4901 63.8652 50.8948 62.757C51.0417 62.3553 51.1097 62.0346 51.137 61.7875C50.9218 61.3076 50.8374 60.3945 50.8194 59.8711C49.7626 61.102 48.5665 61.9033 46.9454 61.8535C45.447 61.8078 44.331 61.0168 43.3474 59.8711C43.331 60.3498 43.2765 60.9305 43.1364 61.4822C43.1081 61.5939 43.0688 61.7018 43.021 61.8053C43.1017 62.5701 43.5671 63.9635 45.4954 65.9738Z" fill="#FCAD6D"></path><path d="M45.6391 66.4856C45.759 66.2144 45.8596 65.9337 45.9334 65.6431C46.2605 64.3544 46.425 63.0108 46.5006 61.8144C45.2223 61.6405 44.2311 60.8995 43.3478 59.8706C43.3314 60.3493 43.277 60.93 43.1369 61.4817C43.1086 61.5935 43.0693 61.7013 43.0215 61.8048C43.102 62.57 43.5672 63.9632 45.4957 65.9737C45.6605 66.1456 45.6785 66.3161 45.6391 66.4856Z" fill="#FD995B"></path><path d="M35.964 71.846L35.188 65.9351C34.8579 66.0374 34.5556 66.2159 34.311 66.4601C33.846 66.9243 33.4905 67.4706 33.2183 68.0493C33.9403 69.4522 34.8692 70.731 35.964 71.846Z" fill="#DAE2FE"></path><path d="M58.2514 71.7969L59.0191 65.9488C59.0059 65.9445 58.9928 65.9395 58.9793 65.9352C57.5529 65.4934 55.6584 64.4949 54.1881 63.6514C53.3002 63.142 52.5664 62.6889 52.1852 62.4492C52.4553 62.8568 52.5648 63.3555 52.484 63.8465C52.2535 65.2471 51.924 66.3859 51.358 67.5125C51.1398 67.9467 50.6473 68.0504 50.2689 67.7453L48.384 66.226C48.3656 66.3309 48.3775 66.441 48.4229 66.5428L48.5984 66.9381C48.6943 67.1539 48.6418 67.4068 48.468 67.5666L46.9602 68.6531C46.8467 68.7572 46.7822 68.9041 46.7822 69.0582V76.5096C46.8824 76.5115 46.9828 76.5135 47.0836 76.5135C51.4635 76.5133 55.4205 74.7057 58.2514 71.7969Z" fill="#DAE2FE"></path><path d="M60.9488 68.0493C60.6766 67.4706 60.3213 66.9243 59.8561 66.4601C59.6115 66.2159 59.3092 66.0374 58.9791 65.9351L58.2031 71.846C59.298 70.7308 60.2269 69.452 60.9488 68.0493Z" fill="#E9EFFF"></path><path d="M45.6369 65.9368C44.7608 65.0206 43.8573 63.8755 43.425 62.6919C43.0498 61.6657 43.2108 61.189 43.2141 61.1333L42.5946 61.7343L42.16 62.1829C41.7239 62.6329 41.5282 63.2634 41.6299 63.8817C41.8633 65.3007 42.1971 66.4544 42.7705 67.5956C42.9914 68.0355 43.4905 68.1403 43.8739 67.8315L45.7901 66.2872C45.7821 66.1587 45.7301 66.0339 45.6369 65.9368Z" fill="#DAE2FE"></path><path d="M45.8341 42.1458C42.0819 42.6569 41.7253 44.7842 41.7237 45.5649C41.7233 45.7286 41.6327 45.8803 41.4854 45.9518C39.5337 46.9012 40.586 51.4772 40.586 51.4772C40.7819 51.4903 40.9872 51.5696 41.1401 51.6438C41.1776 51.4106 41.2388 51.1811 41.3251 50.9592C41.3909 50.7901 41.4731 50.6194 41.5761 50.4579C41.7546 50.1778 41.8358 49.8475 41.8116 49.5172C41.7415 48.5626 41.7753 46.6817 43.0352 46.1145C44.1028 45.6342 45.4122 45.9124 46.2474 46.1901C46.7897 46.3704 47.377 46.3704 47.9194 46.1901C48.7546 45.9124 50.064 45.6342 51.1315 46.1145C52.388 46.6799 52.4253 48.5518 52.3558 49.509C52.3317 49.8418 52.4108 50.1756 52.5907 50.4577C52.697 50.6243 52.7812 50.8008 52.8481 50.9752C52.9312 51.192 52.9903 51.4161 53.0269 51.6436C53.2196 51.5502 53.4954 51.4483 53.7312 51.4817C53.7601 50.4811 53.8524 49.4024 53.8524 49.4024C54.9644 43.9567 49.8739 41.5954 45.8341 42.1458Z" fill="#47477F"></path><path d="M46.1919 46.1724C46.1808 46.1524 46.1704 46.1325 46.1585 46.1128C44.5911 43.4698 46.8044 42.0888 46.8044 42.0888L46.7808 42.0708C46.4612 42.0786 46.1446 42.1036 45.8341 42.1458C42.0819 42.6569 41.7253 44.7843 41.7237 45.5649C41.7233 45.7286 41.6327 45.8804 41.4854 45.9519C39.5337 46.9013 40.586 51.4772 40.586 51.4772C40.7819 51.4903 40.9872 51.5696 41.1401 51.6438C41.1776 51.4106 41.2388 51.1812 41.3251 50.9593C41.3909 50.7901 41.4731 50.6194 41.5761 50.4579C41.7546 50.1778 41.8358 49.8476 41.8116 49.5173C41.7415 48.5626 41.7753 46.6815 43.0353 46.1145C44.0802 45.6448 45.3552 45.9011 46.1919 46.1724Z" fill="#3B3868"></path><path d="M54.1794 51.5956C53.8872 51.3278 53.305 51.4636 53.0534 51.6274C53.1085 51.9708 53.1116 52.322 53.0642 52.669L52.7671 54.8323C52.7671 55.0067 52.7616 55.1778 52.7515 55.3458C53.4757 55.5641 53.8355 54.9139 53.8962 54.4679C53.9224 54.2757 53.9649 54.0864 54.0241 53.9016C54.2167 53.3001 54.9116 52.2665 54.1794 51.5956Z" fill="#FCAD6D"></path><path d="M53.5171 53.798C53.297 53.798 53.0952 53.7201 52.9376 53.5902L52.7671 54.8322C52.7671 55.0066 52.7616 55.1777 52.7515 55.3457C53.4757 55.5641 53.8355 54.9139 53.8962 54.4678C53.9224 54.2756 53.9649 54.0863 54.0241 53.9016C54.0608 53.7867 54.1159 53.6562 54.1759 53.5156C54.0097 53.6895 53.7763 53.798 53.5171 53.798Z" fill="#FD995B"></path><path d="M40.0408 51.5956C40.333 51.3278 40.9152 51.4636 41.1668 51.6274C41.1117 51.9708 41.1086 52.322 41.1563 52.669L41.4533 54.8323C41.4533 55.0067 41.4588 55.1778 41.469 55.3458C40.7447 55.5641 40.385 54.9139 40.3244 54.4679C40.2983 54.2757 40.2557 54.0864 40.1965 53.9016C40.0037 53.3001 39.3086 52.2665 40.0408 51.5956Z" fill="#FCAD6D"></path><path d="M41.2737 53.5259C41.1085 53.6938 40.8786 53.7981 40.6243 53.7981C40.4245 53.7981 40.2405 53.7331 40.0903 53.6243C40.1319 53.7237 40.1692 53.8171 40.1962 53.9017C40.2554 54.0864 40.298 54.2757 40.3241 54.4679C40.3847 54.914 40.7444 55.5644 41.4687 55.3458C41.4585 55.1776 41.453 55.0065 41.453 54.8323L41.2737 53.5259Z" fill="#FD995B"></path><path d="M52.6303 50.4326C52.4598 50.1653 52.3789 49.8383 52.4026 49.5123C52.478 48.4717 52.4157 46.641 51.1508 46.0719C50.0885 45.5942 48.7994 45.8483 47.9051 46.1457C47.3754 46.3221 46.7918 46.3219 46.2621 46.1457C45.3678 45.8483 44.0785 45.5938 43.0164 46.0719C42.4725 46.3166 41.5867 47.0901 41.7653 49.5205C41.7889 49.8407 41.7076 50.1647 41.5369 50.4326C41.1713 51.0059 40.9649 51.8284 41.0832 52.691L41.3799 54.8485C41.3799 55.1645 41.3975 55.4682 41.4291 55.7608L41.428 55.7582C41.9416 59.3959 44.0221 61.1149 45.5352 61.886C46.5049 62.3803 47.6489 62.3819 48.619 61.8881C50.1321 61.1182 52.2252 59.3992 52.7395 55.7582L52.7383 55.761C52.7696 55.4703 52.7869 55.1688 52.7869 54.8549L53.084 52.6916C53.202 51.8323 52.9981 51.0096 52.6303 50.4326Z" fill="#F9BA8F"></path><path d="M44.6498 55.7583L44.651 55.7609C44.6196 55.4683 44.6018 55.1646 44.6018 54.8486L44.3053 52.6911C44.1869 51.8284 44.3934 51.006 44.7588 50.4327C44.9295 50.1648 45.0106 49.8409 44.9871 49.5206C44.8174 47.2083 45.6106 46.3962 46.1565 46.1118C45.2682 45.83 44.0377 45.612 43.0164 46.0718C42.4725 46.3165 41.5867 47.09 41.7653 49.5204C41.7889 49.8405 41.7076 50.1646 41.5369 50.4325C41.1713 51.0058 40.9649 51.8282 41.0832 52.6909L41.3799 54.8484C41.3799 55.1644 41.3975 55.4681 41.4291 55.7607L41.428 55.7581C41.9416 59.3958 44.0221 61.1148 45.5352 61.8859C46.5049 62.3802 47.6489 62.3818 48.619 61.888C48.6424 61.8761 48.6664 61.8632 48.6903 61.8507C47.1832 61.0636 45.1559 59.3429 44.6498 55.7583Z" fill="#FCAD6D"></path><path d="M48.5304 65.9368C49.4065 65.0206 50.3101 63.8755 50.7423 62.6919C51.1175 61.6657 50.9565 61.189 50.9532 61.1333L51.5728 61.7343L52.0075 62.1829C52.4435 62.6329 52.6394 63.2634 52.5376 63.8817C52.3042 65.3007 51.9704 66.4544 51.397 67.5956C51.1759 68.0355 50.6771 68.1403 50.2937 67.8315L48.3774 66.2872C48.3853 66.1587 48.4372 66.0339 48.5304 65.9368Z" fill="#E9EFFF"></path><path d="M87.0604 55.775C92.8409 55.775 97.527 51.0889 97.527 45.3084C97.527 39.5279 92.8409 34.8418 87.0604 34.8418C81.2798 34.8418 76.5938 39.5279 76.5938 45.3084C76.5938 51.0889 81.2798 55.775 87.0604 55.775Z" fill="#42C3FC"></path><path d="M86.1306 49.7655C86.0138 49.6583 85.9784 49.4884 86.0429 49.3435L86.1608 49.078C86.1911 49.0097 86.1993 48.9356 86.1868 48.8653L84.9208 49.8858C84.6667 50.0905 84.3358 50.021 84.1894 49.7294C83.8093 48.9728 83.588 48.2077 83.4331 47.2671C83.3788 46.9372 83.4524 46.6022 83.6339 46.3286C82.4483 47.0737 80.4136 48.254 79.0704 48.67C79.0659 48.6714 79.0616 48.6731 79.0571 48.6745L79.5755 52.6237C81.4759 54.5679 84.1269 55.7751 87.0603 55.7751C87.1278 55.7751 87.1952 55.7737 87.2626 55.7726V50.7677C87.2626 50.6642 87.2192 50.5655 87.1431 50.4956L86.1306 49.7655Z" fill="#BEC8F7"></path><path d="M84.163 49.7854L84.1702 49.6895C83.8022 48.9458 83.5851 48.1913 83.4331 47.2671C83.3788 46.9374 83.4526 46.6024 83.6339 46.3286C82.4483 47.0737 80.4136 48.254 79.0704 48.67C79.0661 48.6714 79.0616 48.6731 79.0571 48.6745L79.5755 52.6237C79.581 52.6292 79.5868 52.6343 79.5921 52.6399C82.8077 51.6462 84.163 49.7854 84.163 49.7854Z" fill="#A2B6F4"></path><path d="M85.9939 48.6955C86.3658 49.0832 85.6285 49.4598 86.0375 49.8355C86.8488 50.5453 87.0359 50.7051 87.0607 50.733C87.0854 50.7051 87.2777 50.541 88.084 49.8355C88.2057 49.7238 88.2424 49.5469 88.1752 49.3959C88.0938 49.1775 87.9857 49.0711 88.0299 48.8781C88.0584 48.7506 88.1369 48.6863 88.2234 48.5945C88.7676 48.0141 89.3484 47.2793 89.6203 46.535C89.7189 46.2652 89.7645 46.0496 89.783 45.8838C89.6385 45.5615 89.5818 44.9482 89.5697 44.5967C88.86 45.4234 88.0564 45.9617 86.9678 45.9281C85.9613 45.8975 85.2117 45.366 84.5512 44.5967C84.54 44.9182 84.5035 45.3082 84.4096 45.6787C84.3904 45.7537 84.3641 45.8262 84.332 45.8957C84.3863 46.4094 84.6988 47.3453 85.9939 48.6955Z" fill="#FCAD6D"></path><path d="M86.09 49.0396C86.1707 48.8574 86.2381 48.6689 86.2877 48.4736C86.5074 47.6082 86.618 46.7057 86.6687 45.9021C85.8102 45.7854 85.1443 45.2877 84.5512 44.5967C84.54 44.9182 84.5035 45.3082 84.4096 45.6787C84.3904 45.7537 84.3641 45.8262 84.332 45.8957C84.3861 46.4098 84.6986 47.3455 85.9937 48.6957C86.1045 48.8113 86.1164 48.9258 86.09 49.0396Z" fill="#FD995B"></path><path d="M79.5917 52.64L79.0706 48.6699C78.8489 48.7387 78.6458 48.8586 78.4815 49.0225C78.1692 49.3344 77.9304 49.7014 77.7476 50.0898C78.2325 51.0322 78.8563 51.891 79.5917 52.64Z" fill="#DAE2FE"></path><path d="M94.5616 52.6071L95.0772 48.6792C95.0683 48.6763 95.0595 48.6729 95.0505 48.67C94.0925 48.3733 92.8198 47.7026 91.8323 47.136C91.236 46.7938 90.7431 46.4896 90.487 46.3286C90.6685 46.6024 90.7421 46.9374 90.6878 47.2671C90.5329 48.2079 90.3116 48.9728 89.9315 49.7294C89.7851 50.021 89.4542 50.0905 89.2001 49.8858L87.9339 48.8653C87.9216 48.9358 87.9296 49.0099 87.9599 49.078L88.0778 49.3435C88.1423 49.4884 88.1069 49.6583 87.9901 49.7655L86.9774 50.4952C86.9013 50.5651 86.8579 50.6638 86.8579 50.7673V55.7722C86.9253 55.7735 86.9927 55.7747 87.0603 55.7747C90.0022 55.7751 92.6601 54.5608 94.5616 52.6071Z" fill="#DAE2FE"></path><path d="M96.3734 50.0898C96.1906 49.7012 95.952 49.3342 95.6395 49.0225C95.4752 48.8586 95.2721 48.7385 95.0504 48.6699L94.5293 52.64C95.2646 51.891 95.8887 51.0322 96.3734 50.0898Z" fill="#E9EFFF"></path><path d="M86.0885 48.6712C85.5 48.056 84.8932 47.2866 84.6028 46.4917C84.3508 45.8024 84.4588 45.4823 84.4612 45.4448L84.0452 45.8485L83.7532 46.1499C83.4604 46.4521 83.3288 46.8757 83.3971 47.2909C83.554 48.2438 83.7782 49.0188 84.1631 49.7854C84.3116 50.081 84.6467 50.1513 84.9041 49.9438L86.1911 48.9065C86.186 48.8202 86.151 48.7364 86.0885 48.6712Z" fill="#DAE2FE"></path><path d="M86.2214 32.6915C83.7013 33.0348 83.4617 34.4637 83.4607 34.988C83.4605 35.0979 83.3996 35.1999 83.3007 35.2479C81.9898 35.8856 82.6966 38.9591 82.6966 38.9591C82.8283 38.9678 82.9662 39.0212 83.0689 39.071C83.0941 38.9143 83.1351 38.7602 83.1931 38.6112C83.2373 38.4977 83.2927 38.3829 83.3617 38.2745C83.4816 38.0864 83.5361 37.8645 83.5199 37.6427C83.4728 37.0014 83.4955 35.738 84.3417 35.3571C85.0587 35.0344 85.9382 35.2214 86.4992 35.4079C86.8634 35.529 87.258 35.529 87.6222 35.4079C88.1832 35.2214 89.0626 35.0346 89.7796 35.3571C90.6236 35.7368 90.6486 36.9942 90.6019 37.6372C90.5857 37.8606 90.6388 38.0848 90.7597 38.2743C90.831 38.3862 90.8877 38.5048 90.9326 38.622C90.9884 38.7677 91.0281 38.918 91.0527 39.0708C91.1822 39.0081 91.3673 38.9397 91.5257 38.962C91.5451 38.2899 91.6072 37.5655 91.6072 37.5655C92.3541 33.9079 88.9349 32.3218 86.2214 32.6915Z" fill="#47477F"></path><path d="M86.4614 35.3955C86.454 35.3822 86.4469 35.3688 86.4389 35.3555C85.3862 33.5803 86.8727 32.6527 86.8727 32.6527L86.8569 32.6406C86.6422 32.6459 86.4295 32.6627 86.221 32.691C83.7008 33.0344 83.4612 34.4633 83.4602 34.9875C83.46 35.0975 83.3991 35.1994 83.3002 35.2475C81.9893 35.8852 82.6961 38.9586 82.6961 38.9586C82.8278 38.9674 82.9657 39.0207 83.0684 39.0705C83.0936 38.9139 83.1346 38.7598 83.1926 38.6107C83.2368 38.4973 83.2922 38.3824 83.3612 38.274C83.4811 38.0859 83.5356 37.8641 83.5194 37.6422C83.4723 37.001 83.495 35.7375 84.3413 35.3566C85.043 35.0412 85.8993 35.2133 86.4614 35.3955Z" fill="#3B3868"></path><path d="M91.8267 39.038C91.6304 38.8581 91.2394 38.9493 91.0704 39.0594C91.1075 39.2901 91.1097 39.526 91.0776 39.7591L90.8782 41.212C90.8782 41.3292 90.8745 41.444 90.8677 41.5569C91.3542 41.7036 91.5958 41.2669 91.6364 40.9673C91.654 40.8383 91.6825 40.711 91.7224 40.587C91.8517 40.1829 92.3185 39.4887 91.8267 39.038Z" fill="#FCAD6D"></path><path d="M91.3814 40.5178C91.2336 40.5178 91.098 40.4654 90.9922 40.3781L90.8777 41.2123C90.8777 41.3295 90.874 41.4443 90.8672 41.5572C91.3537 41.7039 91.5953 41.2672 91.6359 40.9676C91.6535 40.8387 91.682 40.7113 91.7219 40.5873C91.7465 40.5102 91.7836 40.4225 91.8238 40.3281C91.7123 40.4447 91.5557 40.5178 91.3814 40.5178Z" fill="#FD995B"></path><path d="M82.33 39.038C82.5263 38.8581 82.9173 38.9493 83.0863 39.0594C83.0492 39.2901 83.0472 39.526 83.0792 39.7591L83.2786 41.212C83.2786 41.3292 83.2824 41.444 83.289 41.5569C82.8027 41.7036 82.5609 41.2669 82.5203 40.9673C82.5027 40.8383 82.4742 40.711 82.4343 40.587C82.3052 40.1829 81.8384 39.4887 82.33 39.038Z" fill="#FCAD6D"></path><path d="M83.158 40.335C83.0469 40.4477 82.8926 40.5178 82.7219 40.5178C82.5877 40.5178 82.4641 40.4742 82.3633 40.401C82.3912 40.4678 82.4162 40.5305 82.4344 40.5873C82.474 40.7113 82.5027 40.8385 82.5203 40.9676C82.5609 41.2672 82.8027 41.7041 83.2891 41.5572C83.2822 41.4443 83.2787 41.3293 83.2787 41.2123L83.158 40.335Z" fill="#FD995B"></path><path d="M90.7859 38.2571C90.6715 38.0774 90.6172 37.8579 90.633 37.639C90.6836 36.9399 90.6418 35.7104 89.7922 35.3282C89.0787 35.0073 88.2129 35.178 87.6121 35.3778C87.2562 35.4962 86.8644 35.4962 86.5086 35.3778C85.9078 35.178 85.042 35.0071 84.3285 35.3282C83.9631 35.4927 83.3683 36.0122 83.4883 37.6446C83.5041 37.8597 83.4496 38.0772 83.3349 38.2573C83.0894 38.6423 82.9508 39.1948 83.0303 39.7741L83.2295 41.2231C83.2295 41.4354 83.2414 41.6393 83.2625 41.8358C83.2623 41.8352 83.2619 41.8347 83.2619 41.8347C83.6066 44.2774 85.0041 45.4319 86.0203 45.9499C86.6717 46.2819 87.44 46.2829 88.0916 45.9515C89.108 45.4343 90.5139 44.2798 90.8592 41.8341C90.8592 41.8341 90.8586 41.8352 90.8584 41.836C90.8793 41.6407 90.891 41.4382 90.891 41.2274L91.0906 39.7745C91.1699 39.1972 91.033 38.6446 90.7859 38.2571Z" fill="#F9BA8F"></path><path d="M85.4258 41.8343C85.4258 41.8343 85.4264 41.8355 85.4266 41.8361C85.4055 41.6396 85.3935 41.4357 85.3935 41.2234L85.1943 39.7744C85.1148 39.1951 85.2535 38.6426 85.499 38.2576C85.6137 38.0775 85.6681 37.8599 85.6523 37.6449C85.5383 36.0918 86.0711 35.5463 86.4377 35.3554C85.841 35.1662 85.0146 35.0199 84.3285 35.3287C83.9631 35.4931 83.3683 36.0127 83.4883 37.6451C83.5041 37.8601 83.4496 38.0777 83.3349 38.2578C83.0894 38.6427 82.9508 39.1953 83.0303 39.7746L83.2295 41.2236C83.2295 41.4359 83.2414 41.6398 83.2625 41.8363C83.2623 41.8357 83.2619 41.8351 83.2619 41.8351C83.6066 44.2779 85.0041 45.4324 86.0203 45.9504C86.6717 46.2824 87.44 46.2834 88.0916 45.9519C88.1074 45.9439 88.1234 45.9353 88.1394 45.9269C87.1275 45.3978 85.7658 44.242 85.4258 41.8343Z" fill="#FCAD6D"></path><path d="M88.0324 48.6712C88.6209 48.056 89.2277 47.2866 89.5182 46.4917C89.7701 45.8024 89.6621 45.4823 89.6598 45.4448L90.0758 45.8485L90.3678 46.1499C90.6607 46.4521 90.7922 46.8757 90.7238 47.2909C90.567 48.2438 90.3428 49.0188 89.9576 49.7854C89.8092 50.081 89.474 50.1513 89.2166 49.9438L87.9297 48.9065C87.935 48.8202 87.9699 48.7364 88.0324 48.6712Z" fill="#E9EFFF"></path><path d="M23.2643 39.029C25.3767 33.9327 22.9578 28.0888 17.8614 25.9764C12.7651 23.8639 6.92124 26.2829 4.8088 31.3792C2.69636 36.4755 5.11528 42.3194 10.2116 44.4318C15.3079 46.5443 21.1518 44.1254 23.2643 39.029Z" fill="#FFDD40"></path><path d="M13.1404 39.4472C13.0289 39.3448 12.9953 39.1827 13.0568 39.0444L13.1693 38.7911C13.1982 38.7259 13.2061 38.6554 13.1941 38.588L11.9861 39.5616C11.7437 39.7569 11.4279 39.6905 11.2883 39.4124C10.9256 38.6905 10.7145 37.9605 10.5668 37.063C10.515 36.7483 10.5854 36.4288 10.7584 36.1675C9.62715 36.8784 7.68574 38.0046 6.4043 38.4017C6.4 38.403 6.3959 38.4046 6.3916 38.406L6.88633 42.1741C8.69941 44.029 11.2289 45.181 14.0277 45.181C14.0922 45.181 14.1566 45.1798 14.2209 45.1786V40.4032C14.2209 40.3046 14.1795 40.2104 14.1068 40.1437L13.1404 39.4472Z" fill="#BEC8F7"></path><path d="M6.90195 42.1896C9.70937 41.6343 11.2633 39.4659 11.2633 39.4659L11.2543 39.3409C10.9131 38.6421 10.7096 37.931 10.5668 37.063C10.515 36.7483 10.5854 36.4288 10.7584 36.1675C9.62715 36.8784 7.68594 38.0046 6.4043 38.4015C6.4 38.4028 6.3959 38.4044 6.3916 38.4058L6.88633 42.1739C6.89121 42.1792 6.89687 42.1843 6.90195 42.1896Z" fill="#A2B6F4"></path><path d="M13.0101 38.4263C13.3649 38.7962 12.6614 39.1556 13.0517 39.514C13.8259 40.1913 14.0044 40.3435 14.028 40.3704C14.0517 40.3437 14.2351 40.1872 15.0044 39.514C15.1204 39.4073 15.1556 39.2386 15.0915 39.0944C15.0138 38.886 14.9106 38.7845 14.9528 38.6003C14.98 38.4786 15.055 38.4173 15.1374 38.3296C15.6565 37.7759 16.2108 37.0747 16.4702 36.3645C16.5644 36.1071 16.6079 35.9017 16.6255 35.7433C16.4876 35.4358 16.4335 34.8505 16.422 34.5151C15.7446 35.304 14.9782 35.8175 13.9394 35.7854C12.979 35.7562 12.2638 35.2491 11.6335 34.5151C11.6229 34.8218 11.588 35.194 11.4983 35.5476C11.4802 35.6192 11.455 35.6882 11.4243 35.7546C11.4761 36.245 11.7741 37.1378 13.0101 38.4263Z" fill="#FCAD6D"></path><path d="M13.1019 38.7544C13.1788 38.5806 13.2433 38.4007 13.2905 38.2144C13.5001 37.3886 13.6056 36.5274 13.654 35.7606C12.8349 35.6493 12.1995 35.1745 11.6335 34.5151C11.6229 34.8218 11.588 35.194 11.4983 35.5476C11.4802 35.6192 11.455 35.6882 11.4243 35.7546C11.4759 36.245 11.7741 37.138 13.0099 38.4263C13.1157 38.5364 13.1272 38.6458 13.1019 38.7544Z" fill="#FD995B"></path><path d="M6.90195 42.1899L6.40469 38.4019C6.19316 38.4673 5.99941 38.5819 5.84277 38.7384C5.54473 39.0358 5.31699 39.386 5.14258 39.7569C5.60488 40.656 6.2002 41.4753 6.90195 42.1899Z" fill="#DAE2FE"></path><path d="M21.1852 42.1583L21.6771 38.4104C21.6686 38.4075 21.6604 38.4044 21.6516 38.4017C20.7375 38.1187 19.5232 37.4786 18.5809 36.938C18.0119 36.6116 17.5416 36.3212 17.2973 36.1675C17.4703 36.4288 17.5406 36.7483 17.4889 37.063C17.3412 37.9606 17.1301 38.6905 16.7674 39.4124C16.6275 39.6905 16.3119 39.7571 16.0695 39.5616L14.8615 38.588C14.8498 38.6552 14.8574 38.7259 14.8863 38.7911L14.9988 39.0444C15.0602 39.1827 15.0266 39.3448 14.9152 39.4472L13.949 40.1435C13.8764 40.2103 13.835 40.3044 13.835 40.403V45.1784C13.8992 45.1796 13.9635 45.1808 14.0281 45.1808C16.835 45.181 19.3709 44.0226 21.1852 42.1583Z" fill="#DAE2FE"></path><path d="M22.9137 39.7569C22.7393 39.386 22.5115 39.036 22.2135 38.7384C22.0568 38.5819 21.8629 38.4675 21.6516 38.4019L21.1543 42.1899C21.8559 41.4753 22.4512 40.656 22.9137 39.7569Z" fill="#E9EFFF"></path><path d="M13.101 38.403C12.5395 37.8159 11.9604 37.0819 11.6834 36.3235C11.443 35.6659 11.5461 35.3604 11.5483 35.3247L11.1512 35.7099L10.8727 35.9974C10.5932 36.2858 10.4678 36.6897 10.533 37.086C10.6827 37.9954 10.8965 38.7349 11.2641 39.4661C11.4057 39.748 11.7256 39.8153 11.9711 39.6173L13.1991 38.6276C13.1938 38.5452 13.1606 38.4653 13.101 38.403Z" fill="#DAE2FE"></path><path d="M13.227 23.1559C10.8223 23.4834 10.5938 24.8469 10.5928 25.3471C10.5926 25.452 10.5344 25.5492 10.4401 25.5951C9.18928 26.2035 9.86369 29.1361 9.86369 29.1361C9.98928 29.1445 10.1207 29.1953 10.2188 29.2428C10.2428 29.0934 10.282 28.9463 10.3373 28.8041C10.3795 28.6957 10.4322 28.5863 10.4983 28.4828C10.6127 28.3033 10.6649 28.0916 10.6492 27.8801C10.6043 27.2684 10.626 26.0627 11.4334 25.6994C12.1176 25.3916 12.9567 25.5699 13.492 25.7479C13.8397 25.8635 14.216 25.8635 14.5637 25.7479C15.0988 25.5699 15.9381 25.3916 16.6223 25.6994C17.4276 26.0617 17.4514 27.2615 17.4069 27.8748C17.3914 28.0881 17.4422 28.302 17.5574 28.4828C17.6254 28.5897 17.6795 28.7027 17.7223 28.8147C17.7756 28.9535 17.8135 29.0971 17.8369 29.243C17.9606 29.183 18.1371 29.118 18.2883 29.1393C18.3069 28.4981 18.366 27.8068 18.366 27.8068C19.0783 24.3164 15.816 22.8031 13.227 23.1559Z" fill="#47477F"></path><path d="M13.4564 25.7366C13.4493 25.7239 13.4425 25.711 13.4351 25.6983C12.4306 24.0046 13.8489 23.1194 13.8489 23.1194L13.8339 23.1079C13.629 23.1128 13.4261 23.1288 13.2273 23.156C10.8226 23.4835 10.5941 24.847 10.5931 25.3472C10.5929 25.4521 10.5347 25.5493 10.4405 25.5952C9.18976 26.2036 9.86418 29.1362 9.86418 29.1362C9.98976 29.1446 10.1212 29.1954 10.2193 29.2429C10.2433 29.0935 10.2825 28.9464 10.3378 28.8042C10.38 28.6958 10.4327 28.5864 10.4987 28.4829C10.6132 28.3034 10.6654 28.0917 10.6497 27.8802C10.6048 27.2685 10.6265 26.0628 11.4339 25.6995C12.1029 25.3983 12.92 25.5626 13.4564 25.7366Z" fill="#3B3868"></path><path d="M18.5754 29.212C18.3881 29.0403 18.015 29.1274 17.8537 29.2325C17.8891 29.4526 17.891 29.6776 17.8605 29.8999L17.6701 31.2862C17.6701 31.3979 17.6666 31.5077 17.6602 31.6153C18.1242 31.7554 18.3549 31.3386 18.3938 31.0526C18.4105 30.9296 18.4379 30.8083 18.4758 30.6897C18.5992 30.3044 19.0447 29.6421 18.5754 29.212Z" fill="#FCAD6D"></path><path d="M18.1508 30.6234C18.0098 30.6234 17.8805 30.5734 17.7795 30.4902L17.6701 31.2861C17.6701 31.3979 17.6666 31.5076 17.6602 31.6152C18.1242 31.7553 18.3549 31.3385 18.3938 31.0525C18.4105 30.9295 18.4379 30.8082 18.4758 30.6896C18.4994 30.6162 18.5346 30.5324 18.573 30.4424C18.4664 30.5537 18.3168 30.6234 18.1508 30.6234Z" fill="#FD995B"></path><path d="M9.51433 29.212C9.70164 29.0403 10.0747 29.1274 10.236 29.2325C10.2007 29.4526 10.1987 29.6776 10.2292 29.8999L10.4194 31.2862C10.4194 31.3979 10.4229 31.5077 10.4294 31.6153C9.96531 31.7554 9.73465 31.3386 9.69578 31.0526C9.67898 30.9296 9.65164 30.8083 9.61375 30.6897C9.49051 30.3044 9.04519 29.6421 9.51433 29.212Z" fill="#FCAD6D"></path><path d="M10.3043 30.4487C10.1984 30.5563 10.0512 30.6233 9.88809 30.6233C9.76016 30.6233 9.64219 30.5817 9.5459 30.5118C9.57266 30.5755 9.59648 30.6354 9.61367 30.6896C9.65156 30.8079 9.67891 30.9294 9.6957 31.0524C9.73457 31.3384 9.96504 31.7552 10.4293 31.6151C10.4229 31.5075 10.4193 31.3978 10.4193 31.286L10.3043 30.4487Z" fill="#FD995B"></path><path d="M17.5825 28.4666C17.4733 28.2954 17.4214 28.0858 17.4366 27.877C17.4849 27.21 17.445 26.0368 16.6345 25.6721C15.9538 25.3659 15.1276 25.5288 14.5544 25.7194C14.2149 25.8325 13.8409 25.8323 13.5015 25.7194C12.9282 25.5288 12.1021 25.3657 11.4214 25.6721C11.0728 25.829 10.5052 26.3247 10.6196 27.8823C10.6347 28.0875 10.5827 28.295 10.4733 28.4668C10.239 28.8342 10.1067 29.3614 10.1825 29.9141L10.3726 31.2967C10.3726 31.4993 10.3839 31.694 10.404 31.8815L10.4032 31.8797C10.7323 34.211 12.0657 35.3127 13.0355 35.8069C13.6569 36.1237 14.3899 36.1247 15.0118 35.8083C15.9816 35.3147 17.323 34.2133 17.6525 31.8797L17.6517 31.8815C17.6718 31.6952 17.6829 31.502 17.6829 31.3008L17.8733 29.9145C17.9487 29.3635 17.8181 28.8364 17.5825 28.4666Z" fill="#F9BA8F"></path><path d="M12.4683 31.8797L12.4691 31.8815C12.4489 31.694 12.4376 31.4994 12.4376 31.2967L12.2476 29.9141C12.1716 29.3612 12.304 28.8342 12.5382 28.4668C12.6476 28.2951 12.6995 28.0875 12.6845 27.8822C12.5757 26.4004 13.0839 25.8799 13.4339 25.6977C12.8646 25.517 12.0761 25.3774 11.4214 25.6721C11.0728 25.8289 10.5052 26.3246 10.6196 27.8822C10.6347 28.0875 10.5827 28.2949 10.4733 28.4668C10.239 28.8342 10.1067 29.3614 10.1825 29.9141L10.3726 31.2967C10.3726 31.4992 10.3839 31.694 10.404 31.8815L10.4032 31.8797C10.7323 34.211 12.0657 35.3127 13.0355 35.8069C13.6569 36.1237 14.39 36.1246 15.0118 35.8082C15.0269 35.8006 15.0423 35.7924 15.0575 35.7844C14.0919 35.2799 12.7927 34.177 12.4683 31.8797Z" fill="#FCAD6D"></path><path d="M14.955 38.403C15.5165 37.8159 16.0956 37.0819 16.3726 36.3235C16.613 35.6659 16.5099 35.3604 16.5077 35.3247L16.9048 35.7099L17.1833 35.9974C17.4626 36.2858 17.5882 36.6897 17.5229 37.086C17.3733 37.9954 17.1595 38.7349 16.7919 39.4661C16.6503 39.748 16.3304 39.8153 16.0849 39.6173L14.8569 38.6276C14.862 38.5452 14.8954 38.4653 14.955 38.403Z" fill="#E9EFFF"></path><path d="M80.7513 90.6266C84.831 89.9652 87.6022 86.1218 86.9409 82.0422C86.2795 77.9625 82.4361 75.1914 78.3563 75.8528C74.2765 76.5142 71.5054 80.3575 72.1667 84.4372C72.8281 88.5168 76.6715 91.2879 80.7513 90.6266Z" fill="#89E56A"></path><path d="M86.333 86.245C86.333 84.9149 85.5104 83.7235 84.2666 83.2522L83.2479 82.8663C82.8189 82.7038 82.6055 82.5265 82.1447 82.254C81.6398 81.9427 81.0584 81.7778 80.4652 81.7778C79.883 81.7778 79.3004 81.7778 78.7182 81.7778C78.125 81.7778 77.5436 81.9427 77.0387 82.254C76.582 82.5241 76.3652 82.7034 75.9355 82.8663L74.9168 83.2522C73.673 83.7235 72.8506 84.9149 72.8506 86.245V86.5173C74.0674 89.0038 76.6215 90.7167 79.5762 90.7167C82.5562 90.7167 85.1289 88.9747 86.333 86.4536V86.245Z" fill="#DAE2FE"></path><path d="M77.6197 81.9727C77.4182 82.0465 77.2234 82.14 77.0389 82.2537C76.5822 82.5238 76.3654 82.7031 75.9357 82.866L74.917 83.252C73.6732 83.7232 72.8506 84.9146 72.8506 86.2447V86.5172C73.5477 87.9416 74.6848 89.11 76.0834 89.85C76.8059 85.985 79.5918 85.6047 79.5918 85.6047L77.6197 81.9727Z" fill="#BEC8F7"></path><path d="M82.7146 82.605C82.548 82.5054 82.3781 82.3921 82.1451 82.254C81.6402 81.9427 81.0588 81.7778 80.4656 81.7778C79.8547 81.7778 79.3297 81.7778 78.7188 81.7778C78.1256 81.7778 77.5441 81.9427 77.0393 82.254C76.8072 82.3913 76.6371 82.505 76.4697 82.605C76.5359 84.2728 77.9082 85.6048 79.5924 85.6048C81.2762 85.6048 82.6484 84.2728 82.7146 82.605Z" fill="#FCAD6D"></path><path d="M79.5919 82.0808L79.5116 81.7778C79.254 81.7778 78.9952 81.7778 78.7185 81.7778C78.1253 81.7778 77.5436 81.9427 77.0388 82.254C76.8067 82.3913 76.6366 82.505 76.4692 82.605C76.5354 84.2728 77.9077 85.6048 79.5917 85.6048C78.2913 84.0064 79.5919 82.0808 79.5919 82.0808Z" fill="#FD995B"></path><path d="M83.1225 79.4929C83.7117 77.5485 82.6131 75.4946 80.6686 74.9053C78.7242 74.3161 76.6703 75.4147 76.081 77.3592C75.4918 79.3036 76.5904 81.3575 78.5349 81.9468C80.4793 82.536 82.5332 81.4374 83.1225 79.4929Z" fill="#F9BA8F"></path><path d="M79.07 78.4018C79.07 76.7188 79.7159 75.3029 80.5966 74.8652C80.2767 74.7744 79.9405 74.7227 79.5915 74.7227C77.5597 74.7227 75.9126 76.3697 75.9126 78.4016C75.9126 80.4334 77.5597 82.0805 79.5915 82.0805C79.9405 82.0805 80.2767 82.0287 80.5966 81.9379C79.7159 81.5004 79.07 80.0846 79.07 78.4018Z" fill="#FCAD6D"></path><path d="M9.95674 71.833C8.79561 71.833 7.69619 72.0975 6.71533 72.5695C8.84834 77.0828 11.6663 81.2082 15.0354 84.8129C16.5142 83.4457 17.4409 81.49 17.4409 79.3174C17.4409 75.1838 14.0901 71.833 9.95674 71.833Z" fill="#42C3FC"></path><path d="M76.8033 7.00946C77.8764 4.42053 76.6476 1.45185 74.0586 0.378733C71.4697 -0.694385 68.501 0.534426 67.4279 3.12336C66.3548 5.71229 67.5836 8.68097 70.1725 9.75409C72.7615 10.8272 75.7302 9.59839 76.8033 7.00946Z" fill="#FFDD40"></path><path d="M73.2149 6.83418C74.6159 6.83418 75.7517 5.69845 75.7517 4.29746C75.7517 2.89647 74.6159 1.76074 73.2149 1.76074C71.814 1.76074 70.6782 2.89647 70.6782 4.29746C70.6782 5.69845 71.814 6.83418 73.2149 6.83418Z" fill="#FCECA9"></path><path d="M49.5546 27.3196C52.845 26.5419 54.8818 23.244 54.104 19.9536C53.3262 16.6633 50.0284 14.6264 46.738 15.4042C43.4476 16.182 41.4108 19.4799 42.1886 22.7702C42.9664 26.0606 46.2642 28.0974 49.5546 27.3196Z" fill="#FFB332"></path><path d="M49.2877 22.6979C50.6887 22.6979 51.8244 21.5622 51.8244 20.1612C51.8244 18.7602 50.6887 17.6245 49.2877 17.6245C47.8867 17.6245 46.751 18.7602 46.751 20.1612C46.751 21.5622 47.8867 22.6979 49.2877 22.6979Z" fill="#FFDD40"></path><path d="M12.8578 79.293C14.2209 78.9707 15.0648 77.6044 14.7426 76.2413C14.4203 74.8781 13.054 74.0343 11.6909 74.3565C10.3277 74.6787 9.48387 76.045 9.8061 77.4082C10.1283 78.7713 11.4946 79.6152 12.8578 79.293Z" fill="#8AE1FF"></path></g><defs><clipPath id="clip0_304_2249"><rect width="100" height="100" fill="white"></rect></clipPath></defs></svg>